<?xml version="1.0" encoding="utf-8"?>
<!-- Generator: Adobe Illustrator 23.0.4, SVG Export Plug-In . SVG Version: 6.00 Build 0)  -->
<svg version="1.1" id="Layer_1" xmlns:svg="http://www.w3.org/2000/svg"
	 xmlns="http://www.w3.org/2000/svg" xmlns:xlink="http://www.w3.org/1999/xlink" x="0px" y="0px" viewBox="0 0 179.2 190.8"
	 style="enable-background:new 0 0 179.2 190.8;" xml:space="preserve">
<style type="text/css">
	.st0{fill:#007300;stroke:#007300;stroke-width:3.600000e-02;stroke-linecap:round;}
	.st1{fill:#9A916C;stroke:#9A916C;stroke-width:1.798760e-02;stroke-linecap:round;}
	.st2{fill:#FFFFFF;stroke:#FFFFFF;stroke-width:2.429190e-02;stroke-linecap:round;}
	.st3{fill:#666666;}
	.st4{fill:#999999;}
	.st5{fill:#B3B3B3;}
	.st6{fill:#333333;}
	.st7{fill:#E6E6E6;}
	.st8{fill:#CCCCCC;}
	.st9{fill:#1A1A1A;}
	.st10{fill:#939393;}
	.st11{fill:#808080;}
	.st12{fill:#FFFFFF;fill-opacity:0.2;}
	.st13{fill:#404040;}
	.st14{fill:#202020;}
	.st15{fill:#D6D6D6;}
	.st16{fill:#C2C2C2;}
	.st17{fill:#ADADAD;}
	.st18{fill:#D1D1D1;}
	.st19{fill:#DADADA;}
	.st20{fill:#E3E3E3;}
	.st21{fill:#AF7418;}
	.st22{fill:#F7BD13;}
	.st23{fill:#FFFFFF;}
	.st24{fill:#8C8663;}
	.st25{fill:#B8AF82;}
	.st26{fill:#80795B;}
	.st27{fill:#5E5B43;}
	.st28{fill:#9A916C;}
	.st29{font-family:'ArialMT';}
	.st30{font-size:4.32px;}
	.st31{fill:#014CB1;}
	.st32{font-size:3.7417px;}
	.st33{font-size:2.6726px;}
	.st34{fill:none;stroke:#FFFFFF;stroke-width:0.576;stroke-linecap:round;}
	.st35{fill:none;stroke:#9A916C;stroke-width:1.1027;}
	.st36{fill:#DCDCDC;}
	.st37{fill:none;stroke:#8C0000;stroke-width:3.2;stroke-linecap:round;}
	.st38{fill:none;stroke:#CC1414;stroke-width:1.6;stroke-linecap:round;}
	.st39{fill:none;stroke:#000000;stroke-width:3.2;stroke-linecap:round;}
	.st40{fill:none;stroke:#404040;stroke-width:1.6;stroke-linecap:round;}
	.st41{fill:none;stroke:#00A527;stroke-width:3.2;stroke-linecap:round;}
	.st42{fill:none;stroke:#25CC35;stroke-width:1.6;stroke-linecap:round;}
	.st43{fill:none;stroke:#D6D63A;stroke-width:3.2;stroke-linecap:round;}
	.st44{fill:none;stroke:#FFF800;stroke-width:1.6;stroke-linecap:round;}
</style>
<g>
	<g transform="translate(179.235,6.34125)">
		<g transform="matrix(0,1,-1,0,0,0)">
			<g id="breadboard">
				<path id="rect6844" class="st0" d="M8.9,0h167c4.7,0,8.5,3.8,8.5,8.5v67.7c0,4.7-3.8,8.5-8.5,8.5H8.9c-4.7,0-8.5-3.8-8.5-8.5
					V8.5C0.4,3.8,4.2,0,8.9,0z"/>
				
					<ellipse id="path6848" transform="matrix(2.535182e-06 1 -1 2.535182e-06 19.3754 -0.7355)" class="st1" cx="10.1" cy="9.3" rx="8.4" ry="8.4"/>
				
					<ellipse id="path6936" transform="matrix(2.535182e-06 1 -1 2.535182e-06 19.4426 -0.7141)" class="st2" cx="10.1" cy="9.4" rx="3.8" ry="3.8"/>
				
					<ellipse id="path6848-2" transform="matrix(2.535182e-06 1 -1 2.535182e-06 85.1113 65.0003)" class="st1" cx="10.1" cy="75.1" rx="8.4" ry="8.4"/>
				
					<ellipse id="path6936-8" transform="matrix(2.535182e-06 1 -1 2.535182e-06 85.1786 65.0214)" class="st2" cx="10.1" cy="75.1" rx="3.8" ry="3.8"/>
				
					<ellipse id="path6848-2-5" transform="matrix(2.535182e-06 1 -1 2.535182e-06 250.0745 -99.9633)" class="st1" cx="175" cy="75.1" rx="8.4" ry="8.4"/>
				
					<ellipse id="path6936-8-1" transform="matrix(2.535182e-06 1 -1 2.535182e-06 250.1609 -99.9489)" class="st2" cx="175.1" cy="75.1" rx="3.8" ry="3.8"/>
				
					<ellipse id="path6848-6" transform="matrix(2.535182e-06 1 -1 2.535182e-06 184.3386 -165.6991)" class="st1" cx="175" cy="9.3" rx="8.4" ry="8.4"/>
				
					<ellipse id="path6936-8-1-6" transform="matrix(2.535182e-06 1 -1 2.535182e-06 184.4046 -165.697)" class="st2" cx="175.1" cy="9.4" rx="3.8" ry="3.8"/>
				
					<rect id="_x30_.1.0.221.0.0.0-6-0" x="114.8" y="76.1" transform="matrix(2.535182e-06 1 -1 2.535182e-06 191.5815 -38.7528)" class="st3" width="0.8" height="0.7"/>
				
					<rect id="_x30_.1.0.221.0.0.1-7-8" x="114.5" y="76.3" transform="matrix(2.535182e-06 1 -1 2.535182e-06 191.2236 -38.4862)" class="st4" width="0.7" height="0.1"/>
				
					<rect id="_x30_.1.0.221.0.1.0-1-6" x="116.1" y="76.1" transform="matrix(2.535182e-06 1 -1 2.535182e-06 192.8579 -40.0291)" class="st3" width="0.8" height="0.7"/>
				
					<rect id="_x30_.1.0.221.0.1.1-9-1" x="115.8" y="76.3" transform="matrix(2.535182e-06 1 -1 2.535182e-06 192.5007 -39.7633)" class="st4" width="0.7" height="0.1"/>
				
					<rect id="_x30_.1.0.221.0.2.0-3-7" x="117.3" y="76.1" transform="matrix(2.535182e-06 1 -1 2.535182e-06 194.1345 -41.3058)" class="st3" width="0.8" height="0.7"/>
				
					<rect id="_x30_.1.0.221.0.2.1-0-1" x="117.1" y="76.3" transform="matrix(2.535182e-06 1 -1 2.535182e-06 193.7766 -41.0392)" class="st4" width="0.7" height="0.1"/>
				
					<rect id="_x30_.1.0.221.0.3.0-0-8" x="118.6" y="76.1" transform="matrix(2.535182e-06 1 -1 2.535182e-06 195.4137 -42.5849)" class="st3" width="0.8" height="0.7"/>
				
					<rect id="_x30_.1.0.221.0.3.1-7-8" x="118.3" y="76.3" transform="matrix(2.535182e-06 1 -1 2.535182e-06 195.0558 -42.3183)" class="st4" width="0.7" height="0.1"/>
				
					<rect id="_x30_.1.0.221.0.4.0-9-5" x="119.9" y="76.1" transform="matrix(2.535182e-06 1 -1 2.535182e-06 196.6895 -43.8608)" class="st3" width="0.8" height="0.7"/>
				
					<rect id="_x30_.1.0.221.0.4.1-9-2" x="119.6" y="76.3" transform="matrix(2.535182e-06 1 -1 2.535182e-06 196.3316 -43.5942)" class="st4" width="0.7" height="0.1"/>
				<g transform="matrix(11.5972, 0, 0, 10.5709, 108.12, 55.8679)">
					<g>
						<polygon id="_x30_.1.0.221.0.5.0-7-5" class="st5" points="0.3,3 0.3,2 1.4,2 1.4,3 						"/>
					</g>
				</g>
				
					<rect id="_x30_.1.0.221.0.5.1-9-6" x="123.9" y="81.4" transform="matrix(2.535182e-06 1 -1 2.535182e-06 206.5151 -42.9846)" class="st3" width="1.8" height="0.8"/>
				
					<rect id="_x30_.1.0.221.0.5.2-9-5" x="109.8" y="81.4" transform="matrix(2.535182e-06 1 -1 2.535182e-06 192.4588 -28.9282)" class="st3" width="1.8" height="0.8"/>
				
					<rect id="_x30_.1.0.221.0.5.4-5-9" x="113.4" y="77.9" transform="matrix(2.535182e-06 1 -1 2.535182e-06 199.4128 -36.2992)" class="st6" width="9" height="7.3"/>
				<path id="_x30_.1.0.221.0.5.13-6-5" class="st7" d="M122.3,76.6v1h-1.1v-1h-0.3V77h-6v-0.4h-0.4v1h-1.1v-1H111v10.7h13.7V76.6
					H122.3z M114.6,85.4v0.5h-1.1v-0.6c-0.3-0.2-0.5-0.5-0.5-0.8c0-0.4,0.2-0.7,0.5-0.9l0,0v-2.8h1.1v2.8c0.3,0.2,0.6,0.5,0.6,0.9
					C115.1,84.9,114.9,85.2,114.6,85.4z M122.3,85.4v0.5h-1.1v-0.6c-0.3-0.2-0.5-0.5-0.5-0.8c0-0.4,0.2-0.7,0.5-0.9l0,0v-2.8h1.1
					v2.8c0.3,0.2,0.6,0.5,0.6,0.9C122.9,84.9,122.6,85.2,122.3,85.4z"/>
				<g transform="matrix(11.5972, 0, 0, 10.5709, 108.12, 55.8679)">
					<g>
						<polygon id="_x30_.1.0.221.0.5.15-5-6" class="st4" points="1.4,2.3 1.3,2 1.4,2 1.4,3 						"/>
					</g>
				</g>
				
					<rect id="_x30_.1.0.221.0.5.18-5-5" x="117.6" y="79.8" transform="matrix(2.535182e-06 1 -1 2.535182e-06 204.757 -30.6896)" class="st5" width="0.3" height="14.5"/>
				
					<rect id="_x30_.1.0.221.0.5.19-7-3" x="117.6" y="80" transform="matrix(2.535182e-06 1 -1 2.535182e-06 204.994 -30.4527)" class="st8" width="0.2" height="14.5"/>
				
					<rect id="_x30_.1.0.221.0.0.0-6-0-0" x="150.2" y="76.1" transform="matrix(2.535182e-06 1 -1 2.535182e-06 227.0069 -74.0254)" class="st3" width="0.6" height="0.8"/>
				
					<rect id="_x30_.1.0.221.0.0.1-7-8-4" x="149.9" y="76.4" transform="matrix(2.535182e-06 1 -1 2.535182e-06 226.6489 -73.7588)" class="st4" width="0.6" height="0.1"/>
				
					<rect id="_x30_.1.0.221.0.1.0-1-6-8" x="151.5" y="76.1" transform="matrix(2.535182e-06 1 -1 2.535182e-06 228.2842 -75.3027)" class="st3" width="0.6" height="0.8"/>
				
					<rect id="_x30_.1.0.221.0.1.1-9-1-1" x="151.2" y="76.4" transform="matrix(2.535182e-06 1 -1 2.535182e-06 227.9271 -75.0369)" class="st4" width="0.6" height="0.1"/>
				
					<rect id="_x30_.1.0.221.0.2.0-3-7-1" x="152.7" y="76.1" transform="matrix(2.535182e-06 1 -1 2.535182e-06 229.5609 -76.5794)" class="st3" width="0.6" height="0.8"/>
				
					<rect id="_x30_.1.0.221.0.2.1-0-1-8" x="152.5" y="76.4" transform="matrix(2.535182e-06 1 -1 2.535182e-06 229.2029 -76.3128)" class="st4" width="0.6" height="0.1"/>
				
					<rect id="_x30_.1.0.221.0.3.0-0-8-0" x="154" y="76.1" transform="matrix(2.535182e-06 1 -1 2.535182e-06 230.839 -77.8575)" class="st3" width="0.6" height="0.8"/>
				
					<rect id="_x30_.1.0.221.0.3.1-7-8-6" x="153.7" y="76.4" transform="matrix(2.535182e-06 1 -1 2.535182e-06 230.4811 -77.5909)" class="st4" width="0.6" height="0.1"/>
				
					<rect id="_x30_.1.0.221.0.4.0-9-5-8" x="155.3" y="76.1" transform="matrix(2.535182e-06 1 -1 2.535182e-06 232.1149 -79.1334)" class="st3" width="0.6" height="0.8"/>
				
					<rect id="_x30_.1.0.221.0.4.1-9-2-2" x="155" y="76.4" transform="matrix(2.535182e-06 1 -1 2.535182e-06 231.7569 -78.8668)" class="st4" width="0.6" height="0.1"/>
				<g transform="matrix(11.5972, 0, 0, 10.5709, 143.469, 55.9443)">
					<g>
						<polygon id="_x30_.1.0.221.0.5.0-7-5-8" class="st5" points="1.4,3 0.3,3 0.3,2 1.4,2 						"/>
					</g>
				</g>
				
					<rect id="_x30_.1.0.221.0.5.1-9-6-0" x="159.4" y="81.4" transform="matrix(2.535182e-06 1 -1 2.535182e-06 241.9405 -78.2571)" class="st3" width="1.5" height="0.9"/>
				
					<rect id="_x30_.1.0.221.0.5.2-9-5-8" x="145.3" y="81.4" transform="matrix(2.535182e-06 1 -1 2.535182e-06 227.8842 -64.2007)" class="st3" width="1.5" height="0.9"/>
				
					<rect id="_x30_.1.0.221.0.5.4-5-9-7" x="149.5" y="77.2" transform="matrix(2.535182e-06 1 -1 2.535182e-06 234.8392 -71.5727)" class="st6" width="7.5" height="8.8"/>
				<path id="_x30_.1.0.221.0.5.13-6-5-6" class="st7" d="M157.7,76.7v1h-1.1v-1h-0.3v0.4h-6v-0.4h-0.4v1h-1.1v-1h-2.4v10.7h13.7
					V76.7H157.7z M149.9,85.5V86h-1.1v-0.6c-0.3-0.2-0.5-0.5-0.5-0.8c0-0.4,0.2-0.7,0.5-0.9l0,0v-2.8h1.1v2.8
					c0.3,0.2,0.6,0.5,0.6,0.9C150.5,85,150.2,85.3,149.9,85.5z M157.6,85.5V86h-1.1v-0.6c-0.3-0.2-0.5-0.5-0.5-0.8
					c0-0.4,0.2-0.7,0.5-0.9l0,0v-2.8h1.1v2.8c0.3,0.2,0.6,0.5,0.6,0.9C158.2,85,158,85.3,157.6,85.5z"/>
				<g transform="matrix(11.5972, 0, 0, 10.5709, 143.469, 55.9443)">
					<g>
						<polygon id="_x30_.1.0.221.0.5.15-5-6-7" class="st4" points="1.4,3 1.4,2.3 1.3,2 1.4,2 						"/>
					</g>
				</g>
				
					<rect id="_x30_.1.0.221.0.5.18-5-5-8" x="152.9" y="78.4" transform="matrix(2.535182e-06 1 -1 2.535182e-06 240.1824 -65.9622)" class="st5" width="0.3" height="17.5"/>
				
					<rect id="_x30_.1.0.221.0.5.19-7-3-0" x="153" y="78.6" transform="matrix(2.535182e-06 1 -1 2.535182e-06 240.4195 -65.7251)" class="st8" width="0.1" height="17.5"/>
				<g transform="matrix(10.994, 0, 0, 11.083, 14.7279, -20.7508)">
					<g>
						<polygon id="rect3941-8_1_" class="st9" points="7.9,4 7.9,6.8 5.1,6.8 5.1,4.3 5.3,4 						"/>
					</g>
				</g>
				
					<rect id="_x30_.1.0.220.0.0.0-6" x="40.2" y="71.4" transform="matrix(2.535182e-06 1 -1 2.535182e-06 112.4236 31.048)" class="st8" width="1" height="0.7"/>
				
					<rect id="_x30_.1.0.220.0.2.0-9" x="39" y="71.4" transform="matrix(2.535182e-06 1 -1 2.535182e-06 111.2217 32.2499)" class="st8" width="1" height="0.7"/>
				
					<rect id="_x30_.1.0.220.0.3.0-5" x="38.4" y="71.4" transform="matrix(2.535182e-06 1 -1 2.535182e-06 110.6192 32.8524)" class="st8" width="1" height="0.7"/>
				
					<rect id="_x30_.1.0.220.0.4.0-5" x="37.8" y="71.4" transform="matrix(2.535182e-06 1 -1 2.535182e-06 110.0174 33.4542)" class="st8" width="1" height="0.7"/>
				
					<rect id="_x30_.1.0.220.0.5.0-1" x="37.2" y="71.4" transform="matrix(2.535182e-06 1 -1 2.535182e-06 109.4161 34.0555)" class="st8" width="1" height="0.7"/>
				
					<rect id="_x30_.1.0.220.0.6.0-8" x="36.6" y="71.4" transform="matrix(2.535182e-06 1 -1 2.535182e-06 108.8148 34.6568)" class="st8" width="1" height="0.7"/>
				
					<rect id="_x30_.1.0.220.0.7.0-5" x="36" y="71.4" transform="matrix(2.535182e-06 1 -1 2.535182e-06 108.2138 35.2579)" class="st8" width="1" height="0.7"/>
				
					<rect id="_x30_.1.0.220.0.8.0-6" x="35.4" y="71.4" transform="matrix(2.535182e-06 1 -1 2.535182e-06 107.6125 35.8592)" class="st8" width="1" height="0.7"/>
				
					<rect id="_x30_.1.0.220.0.9.0-8" x="34.8" y="71.4" transform="matrix(2.535182e-06 1 -1 2.535182e-06 107.0099 36.4617)" class="st8" width="1" height="0.7"/>
				
					<rect id="_x30_.1.0.220.0.10.0-2" x="34.2" y="71.4" transform="matrix(2.535182e-06 1 -1 2.535182e-06 106.4085 37.0632)" class="st8" width="1" height="0.7"/>
				
					<rect id="_x30_.1.0.220.0.11.0-2" x="33.6" y="71.4" transform="matrix(2.535182e-06 1 -1 2.535182e-06 105.8077 37.664)" class="st8" width="1" height="0.7"/>
				
					<rect id="_x30_.1.0.220.0.12.0-7" x="33" y="71.4" transform="matrix(2.535182e-06 1 -1 2.535182e-06 105.2069 38.2648)" class="st8" width="1" height="0.7"/>
				
					<rect id="_x30_.1.0.220.0.13.0-6" x="32.4" y="71.4" transform="matrix(2.535182e-06 1 -1 2.535182e-06 104.6048 38.8668)" class="st8" width="1" height="0.7"/>
				
					<rect id="_x30_.1.0.220.0.14.0-9" x="31.8" y="71.4" transform="matrix(2.535182e-06 1 -1 2.535182e-06 104.0035 39.4681)" class="st8" width="1" height="0.7"/>
				
					<rect id="_x30_.1.0.220.0.15.0-7" x="31.2" y="71.4" transform="matrix(2.535182e-06 1 -1 2.535182e-06 103.4017 40.0699)" class="st8" width="1" height="0.7"/>
				
					<rect id="_x30_.1.0.220.0.16.0-4" x="30.6" y="71.4" transform="matrix(2.535182e-06 1 -1 2.535182e-06 102.7999 40.6717)" class="st8" width="1" height="0.7"/>
				
					<rect id="_x30_.1.0.220.0.17.0-7" x="30" y="71.4" transform="matrix(2.535182e-06 1 -1 2.535182e-06 102.1989 41.2728)" class="st8" width="1" height="0.7"/>
				
					<rect id="_x30_.1.0.220.0.18.0-0" x="29.4" y="71.4" transform="matrix(2.535182e-06 1 -1 2.535182e-06 101.5973 41.8743)" class="st8" width="1" height="0.7"/>
				
					<rect id="_x30_.1.0.220.0.19.0-3" x="28.8" y="71.4" transform="matrix(2.535182e-06 1 -1 2.535182e-06 100.9965 42.4751)" class="st8" width="1" height="0.7"/>
				
					<rect id="_x30_.1.0.220.0.20.0-2" x="28.2" y="71.4" transform="matrix(2.535182e-06 1 -1 2.535182e-06 100.3947 43.0769)" class="st8" width="1" height="0.7"/>
				
					<rect id="_x30_.1.0.220.0.21.0-0" x="27.6" y="71.4" transform="matrix(2.535182e-06 1 -1 2.535182e-06 99.7924 43.6792)" class="st8" width="1" height="0.7"/>
				
					<rect id="_x30_.1.0.220.0.22.0-3" x="27" y="71.4" transform="matrix(2.535182e-06 1 -1 2.535182e-06 99.1906 44.281)" class="st8" width="1" height="0.7"/>
				
					<rect id="_x30_.1.0.220.2.2-5" x="30.5" y="65.6" transform="matrix(2.535182e-06 1 -1 2.535182e-06 116.0923 47.9623)" class="st6" width="7.2" height="32.9"/>
				<path id="_x30_.1.0.220.2.3-1" class="st5" d="M41.8,72.1H26.3v2.6h-3.7v12.1v0.5h1h20.9h1v-0.5V74.7h-3.7L41.8,72.1z M30.6,86
					h-0.3c-0.2,0-0.3-0.1-0.3-0.2l-0.9-6.6c0-0.1-0.2-0.2-0.3-0.2H28c-0.2,0-0.3,0.1-0.3,0.2l-0.9,6.6c0,0.1-0.2,0.2-0.3,0.2l-0.3,0
					c-0.2,0-0.3-0.1-0.3-0.2l1.2-7.9c0-0.1,0.2-0.2,0.3-0.2h1.9c0.2,0,0.3,0.1,0.3,0.2l1.2,7.9C30.8,85.9,30.7,86,30.6,86L30.6,86z
					 M31.8,76.5h0.3c0.2,0,0.4,0.1,0.4,0.3l1,8.3c0,0.1,0.2,0.3,0.4,0.3h0.8c0.2,0,0.4-0.1,0.4-0.3l1-8.3c0-0.1,0.2-0.3,0.4-0.3
					l0.3,0c0.2,0,0.3,0.1,0.3,0.3l-1.3,9.2c0,0.1-0.2,0.3-0.4,0.3h-2.1c-0.2,0-0.4-0.1-0.4-0.3l-1.4-9.2
					C31.5,76.6,31.6,76.5,31.8,76.5L31.8,76.5z M41.9,86h-0.3c-0.2,0-0.3-0.1-0.3-0.2l-0.9-6.6c0-0.1-0.2-0.2-0.3-0.2h-0.7
					c-0.2,0-0.3,0.1-0.3,0.2l-0.9,6.6c0,0.1-0.2,0.2-0.3,0.2l-0.3,0c-0.2,0-0.3-0.1-0.3-0.2l1.2-7.9c0-0.1,0.2-0.2,0.3-0.2h1.9
					c0.2,0,0.3,0.1,0.3,0.2l1.2,7.9C42.2,85.9,42.1,86,41.9,86L41.9,86z"/>
				<g transform="matrix(6.9536, 0, 0, 6.37484, -11.3403, 11.8813)">
					<g>
						<polygon id="_x30_.1.0.220.2.4-1" class="st10" points="7.5,10.5 7.5,10.6 7.2,10.6 7.2,10.5 						"/>
					</g>
				</g>
				<g transform="matrix(6.9536, 0, 0, 6.37484, -11.3403, 11.8813)">
					<g>
						<polygon id="_x30_.1.0.220.2.5-0" class="st3" points="7.5,10.7 7.5,10.6 7.2,10.6 7.2,10.7 						"/>
					</g>
				</g>
				
					<rect id="_x30_.1.0.220.3-0" x="23.3" y="74.7" transform="matrix(2.535182e-06 1 -1 2.535182e-06 99.345 52.5595)" class="st11" width="0.2" height="2.6"/>
				
					<rect id="_x30_.1.0.220.4-8" x="23.3" y="75.7" transform="matrix(2.535182e-06 1 -1 2.535182e-06 100.421 53.6355)" class="st11" width="0.2" height="2.6"/>
				
					<rect id="_x30_.1.0.220.5-4" x="44.6" y="74.7" transform="matrix(2.535182e-06 1 -1 2.535182e-06 120.7018 31.2027)" class="st11" width="0.2" height="2.6"/>
				
					<rect id="_x30_.1.0.220.6-9" x="44.6" y="75.7" transform="matrix(2.535182e-06 1 -1 2.535182e-06 121.7778 32.2787)" class="st11" width="0.2" height="2.6"/>
				<path id="_x30_.1.0.220.7-8" class="st11" d="M28.4,72.1c-0.2,0-0.4,0-0.4,0s0,0.2,0,0.4c0,0.2,0,0.5,0,0.7v1
					c0,0.2,0.2,0.4,0.4,0.4c0.2,0,0.4-0.2,0.4-0.4v-1c0-0.2,0.2-0.4,0.4-0.4h9.7c0.2,0,0.4,0.2,0.4,0.4v1c0,0.2,0.2,0.4,0.4,0.4
					c0.2,0,0.4-0.2,0.4-0.4v-1c0-0.2,0-0.5,0-0.7c0-0.2,0-0.4,0-0.4s-0.2,0-0.4,0H28.4z"/>
				
					<rect id="_x30_.1.0.220.9-0" x="19.6" y="80.4" transform="matrix(2.535182e-06 1 -1 2.535182e-06 104.238 57.7393)" class="st12" width="7.4" height="1.2"/>
				
					<rect id="_x30_.1.0.220.0.2.0-9-5" x="39.8" y="71.2" transform="matrix(2.535182e-06 1 -1 2.535182e-06 111.6306 31.4697)" class="st8" width="0.6" height="0.8"/>
				<g transform="matrix(6.9536, 0, 0, 6.37484, -22.7216, 11.87)">
					<g>
						<polygon id="_x30_.1.0.220.2.4-1-0" class="st10" points="7.2,10.6 7.2,10.5 7.5,10.5 7.5,10.6 						"/>
					</g>
				</g>
				<g transform="matrix(6.9536, 0, 0, 6.37484, -22.7216, 11.87)">
					<g>
						<polygon id="_x30_.1.0.220.2.5-0-1" class="st3" points="7.2,10.6 7.2,10.7 7.5,10.7 7.5,10.6 						"/>
					</g>
				</g>
				
					<rect id="_x30_.1.0.220.9-0-0" x="41.7" y="80.2" transform="matrix(2.535182e-06 1 -1 2.535182e-06 125.7732 36.0949)" class="st12" width="6.2" height="1.4"/>
				<g transform="matrix(0.00465967, 0.594904, -0.738351, 0.00375439, 33.6398, 23.7036)">
					<g>
						<polygon id="polygon12-5" class="st13" points="39,44.4 39,41.1 41.2,41.1 41.2,0 2,0 2,20.7 0,20.7 0,42.1 3.1,42.1 
							3.1,27.9 30,27.9 30,45.6 41.2,45.6 41.2,44.4 						"/>
					</g>
				</g>
				<g transform="matrix(0.00465967, 0.594904, -0.738351, 0.00375439, 33.6398, 23.7036)">
					<g>
						<polygon id="polygon14-9" class="st11" points="30,45.6 39.2,45.6 39.1,45.7 30,45.7 						"/>
					</g>
				</g>
				<g transform="matrix(0.00783239,0.99996933,-0.99998707,0.00508475,0,0)">
					<g>
						<polygon id="rect16-6" class="st14" points="25.1,-12.9 41.7,-12.9 41.7,-12.7 25.1,-12.7 						"/>
					</g>
				</g>
				<g transform="matrix(0.00783239,0.99996933,-0.99998707,0.00508475,0,0)">
					<g>
						<polygon id="rect18-8" class="st4" points="38.9,-14.7 40.3,-14.7 40.3,-12.9 38.9,-12.9 						"/>
					</g>
				</g>
				<g transform="matrix(0.00783239,0.99996933,-0.99998707,0.00508475,0,0)">
					<g>
						<polygon id="rect20-5" class="st8" points="38.9,-14.8 40.3,-14.8 40.3,-13 38.9,-13 						"/>
					</g>
				</g>
				<g transform="matrix(0.00783239,0.99996933,-0.99998707,0.00508475,0,0)">
					<g>
						<polygon id="rect22-9" class="st15" points="39.2,-14.7 39.9,-14.7 39.9,-8.8 39.2,-8.8 						"/>
					</g>
				</g>
				<g transform="matrix(0.00783239,0.99996933,-0.99998707,0.00508475,0,0)">
					<g>
						<polygon id="rect24-5" class="st16" points="39.2,-12.2 39.9,-12.2 39.9,-11.5 39.2,-11.5 						"/>
					</g>
				</g>
				<g transform="matrix(0.00783239,0.99996933,-0.99998707,0.00508475,0,0)">
					<g>
						<polygon id="rect26-5" class="st17" points="39.2,-12.6 39.9,-12.6 39.9,-12.1 39.2,-12.1 						"/>
					</g>
				</g>
				<g transform="matrix(0.00783239,0.99996933,-0.99998707,0.00508475,0,0)">
					<g>
						<polygon id="rect28-1" class="st4" points="39.2,-15.7 39.9,-15.7 39.9,-12.6 39.2,-12.6 						"/>
					</g>
				</g>
				<g transform="matrix(0.00783239,0.99996933,-0.99998707,0.00508475,0,0)">
					<g>
						<polygon id="rect30-6" class="st4" points="37,-14.7 38.4,-14.7 38.4,-12.9 37,-12.9 						"/>
					</g>
				</g>
				<g transform="matrix(0.00783239,0.99996933,-0.99998707,0.00508475,0,0)">
					<g>
						<polygon id="rect32-3" class="st8" points="37,-14.8 38.4,-14.8 38.4,-13 37,-13 						"/>
					</g>
				</g>
				<g transform="matrix(0.00783239,0.99996933,-0.99998707,0.00508475,0,0)">
					<g>
						<polygon id="rect34-9" class="st15" points="37.3,-14.7 38,-14.7 38,-8.8 37.3,-8.8 						"/>
					</g>
				</g>
				<g transform="matrix(0.00783239,0.99996933,-0.99998707,0.00508475,0,0)">
					<g>
						<polygon id="rect36-8" class="st16" points="37.3,-12.2 38,-12.2 38,-11.5 37.3,-11.5 						"/>
					</g>
				</g>
				<g transform="matrix(0.00783239,0.99996933,-0.99998707,0.00508475,0,0)">
					<g>
						<polygon id="rect38-7" class="st17" points="37.3,-12.6 38,-12.6 38,-12.1 37.3,-12.1 						"/>
					</g>
				</g>
				<g transform="matrix(0.00783239,0.99996933,-0.99998707,0.00508475,0,0)">
					<g>
						<polygon id="rect40-8" class="st4" points="37.3,-15.7 38,-15.7 38,-12.6 37.3,-12.6 						"/>
					</g>
				</g>
				<g transform="matrix(0.00783239,0.99996933,-0.99998707,0.00508475,0,0)">
					<g>
						<polygon id="rect42-7" class="st4" points="35.1,-14.7 36.5,-14.7 36.5,-12.9 35.1,-12.9 						"/>
					</g>
				</g>
				<g transform="matrix(0.00783239,0.99996933,-0.99998707,0.00508475,0,0)">
					<g>
						<polygon id="rect44-7" class="st8" points="35.1,-14.8 36.5,-14.8 36.5,-13 35.1,-13 						"/>
					</g>
				</g>
				<g transform="matrix(0.00783239,0.99996933,-0.99998707,0.00508475,0,0)">
					<g>
						<polygon id="rect46-5" class="st15" points="35.4,-14.7 36.1,-14.7 36.1,-8.8 35.4,-8.8 						"/>
					</g>
				</g>
				<g transform="matrix(0.00783239,0.99996933,-0.99998707,0.00508475,0,0)">
					<g>
						<polygon id="rect48-4" class="st16" points="35.4,-12.2 36.1,-12.2 36.1,-11.5 35.4,-11.5 						"/>
					</g>
				</g>
				<g transform="matrix(0.00783239,0.99996933,-0.99998707,0.00508475,0,0)">
					<g>
						<polygon id="rect50-5" class="st17" points="35.4,-12.6 36.1,-12.6 36.1,-12.1 35.4,-12.1 						"/>
					</g>
				</g>
				<g transform="matrix(0.00783239,0.99996933,-0.99998707,0.00508475,0,0)">
					<g>
						<polygon id="rect52-4" class="st4" points="35.4,-15.7 36.1,-15.7 36.1,-12.6 35.4,-12.6 						"/>
					</g>
				</g>
				<g transform="matrix(0.00783239,0.99996933,-0.99998707,0.00508475,0,0)">
					<g>
						<polygon id="rect54-6" class="st4" points="33.3,-14.7 34.6,-14.7 34.6,-12.9 33.3,-12.9 						"/>
					</g>
				</g>
				<g transform="matrix(0.00783239,0.99996933,-0.99998707,0.00508475,0,0)">
					<g>
						<polygon id="rect56-9" class="st8" points="33.3,-14.8 34.6,-14.8 34.6,-13 33.3,-13 						"/>
					</g>
				</g>
				<g transform="matrix(0.00783239,0.99996933,-0.99998707,0.00508475,0,0)">
					<g>
						<polygon id="rect58-1" class="st15" points="33.5,-14.7 34.3,-14.7 34.3,-8.8 33.5,-8.8 						"/>
					</g>
				</g>
				<g transform="matrix(0.00783239,0.99996933,-0.99998707,0.00508475,0,0)">
					<g>
						<polygon id="rect60-9" class="st16" points="33.5,-12.2 34.3,-12.2 34.3,-11.5 33.5,-11.5 						"/>
					</g>
				</g>
				<g transform="matrix(0.00783239,0.99996933,-0.99998707,0.00508475,0,0)">
					<g>
						<polygon id="rect62-7" class="st17" points="33.5,-12.6 34.3,-12.6 34.3,-12.1 33.5,-12.1 						"/>
					</g>
				</g>
				<g transform="matrix(0.00783239,0.99996933,-0.99998707,0.00508475,0,0)">
					<g>
						<polygon id="rect64-5" class="st4" points="33.5,-15.7 34.3,-15.7 34.3,-12.6 33.5,-12.6 						"/>
					</g>
				</g>
				<g transform="matrix(0.00783239,0.99996933,-0.99998707,0.00508475,0,0)">
					<g>
						<polygon id="rect66-9" class="st4" points="31.4,-14.7 32.7,-14.7 32.7,-12.9 31.4,-12.9 						"/>
					</g>
				</g>
				<g transform="matrix(0.00783239,0.99996933,-0.99998707,0.00508475,0,0)">
					<g>
						<polygon id="rect68-2" class="st8" points="31.4,-14.8 32.7,-14.8 32.7,-13 31.4,-13 						"/>
					</g>
				</g>
				<g transform="matrix(0.00783239,0.99996933,-0.99998707,0.00508475,0,0)">
					<g>
						<polygon id="rect70-4" class="st15" points="31.7,-14.7 32.4,-14.7 32.4,-8.8 31.7,-8.8 						"/>
					</g>
				</g>
				<g transform="matrix(0.00783239,0.99996933,-0.99998707,0.00508475,0,0)">
					<g>
						<polygon id="rect72-1" class="st16" points="31.7,-12.2 32.4,-12.2 32.4,-11.5 31.7,-11.5 						"/>
					</g>
				</g>
				<g transform="matrix(0.00783239,0.99996933,-0.99998707,0.00508475,0,0)">
					<g>
						<polygon id="rect74-2" class="st17" points="31.7,-12.6 32.4,-12.6 32.4,-12.1 31.7,-12.1 						"/>
					</g>
				</g>
				<g transform="matrix(0.00783239,0.99996933,-0.99998707,0.00508475,0,0)">
					<g>
						<polygon id="rect76-9" class="st4" points="31.7,-15.7 32.4,-15.7 32.4,-12.6 31.7,-12.6 						"/>
					</g>
				</g>
				<g transform="matrix(0.00783239,0.99996933,-0.99998707,0.00508475,0,0)">
					<g>
						<polygon id="rect78-1" class="st4" points="29.5,-14.7 30.8,-14.7 30.8,-12.9 29.5,-12.9 						"/>
					</g>
				</g>
				<g transform="matrix(0.00783239,0.99996933,-0.99998707,0.00508475,0,0)">
					<g>
						<polygon id="rect80-1" class="st8" points="29.5,-14.8 30.8,-14.8 30.8,-13 29.5,-13 						"/>
					</g>
				</g>
				<g transform="matrix(0.00783239,0.99996933,-0.99998707,0.00508475,0,0)">
					<g>
						<polygon id="rect82-2" class="st15" points="29.8,-14.7 30.5,-14.7 30.5,-8.8 29.8,-8.8 						"/>
					</g>
				</g>
				<g transform="matrix(0.00783239,0.99996933,-0.99998707,0.00508475,0,0)">
					<g>
						<polygon id="rect84-4" class="st16" points="29.8,-12.2 30.5,-12.2 30.5,-11.5 29.8,-11.5 						"/>
					</g>
				</g>
				<g transform="matrix(0.00783239,0.99996933,-0.99998707,0.00508475,0,0)">
					<g>
						<polygon id="rect86-4" class="st17" points="29.8,-12.6 30.5,-12.6 30.5,-12.1 29.8,-12.1 						"/>
					</g>
				</g>
				<g transform="matrix(0.00783239,0.99996933,-0.99998707,0.00508475,0,0)">
					<g>
						<polygon id="rect88-0" class="st4" points="29.8,-15.7 30.5,-15.7 30.5,-12.6 29.8,-12.6 						"/>
					</g>
				</g>
				<g transform="matrix(0.00783239,0.99996933,-0.99998707,0.00508475,0,0)">
					<g>
						<polygon id="rect90-6" class="st4" points="27.6,-14.7 28.9,-14.7 28.9,-12.9 27.6,-12.9 						"/>
					</g>
				</g>
				<g transform="matrix(0.00783239,0.99996933,-0.99998707,0.00508475,0,0)">
					<g>
						<polygon id="rect92-8" class="st8" points="27.6,-14.8 28.9,-14.8 28.9,-13 27.6,-13 						"/>
					</g>
				</g>
				<g transform="matrix(0.00783239,0.99996933,-0.99998707,0.00508475,0,0)">
					<g>
						<polygon id="rect94-2" class="st15" points="27.9,-14.7 28.6,-14.7 28.6,-8.8 27.9,-8.8 						"/>
					</g>
				</g>
				<g transform="matrix(0.00783239,0.99996933,-0.99998707,0.00508475,0,0)">
					<g>
						<polygon id="rect96-2" class="st16" points="27.9,-12.2 28.6,-12.2 28.6,-11.5 27.9,-11.5 						"/>
					</g>
				</g>
				<g transform="matrix(0.00783239,0.99996933,-0.99998707,0.00508475,0,0)">
					<g>
						<polygon id="rect98-0" class="st17" points="27.9,-12.6 28.6,-12.6 28.6,-12.1 27.9,-12.1 						"/>
					</g>
				</g>
				<g transform="matrix(0.00783239,0.99996933,-0.99998707,0.00508475,0,0)">
					<g>
						<polygon id="rect100-0" class="st4" points="27.9,-15.7 28.6,-15.7 28.6,-12.6 27.9,-12.6 						"/>
					</g>
				</g>
				<g transform="matrix(0.00783239,0.99996933,-0.99998707,0.00508475,0,0)">
					<g>
						<polygon id="rect102-9" class="st4" points="25.7,-14.7 27.1,-14.7 27.1,-12.9 25.7,-12.9 						"/>
					</g>
				</g>
				<g transform="matrix(0.00783239,0.99996933,-0.99998707,0.00508475,0,0)">
					<g>
						<polygon id="rect104-3" class="st8" points="25.7,-14.8 27.1,-14.8 27.1,-13 25.7,-13 						"/>
					</g>
				</g>
				<g transform="matrix(0.00783239,0.99996933,-0.99998707,0.00508475,0,0)">
					<g>
						<polygon id="rect106-9" class="st15" points="26,-14.7 26.7,-14.7 26.7,-8.8 26,-8.8 						"/>
					</g>
				</g>
				<g transform="matrix(0.00783239,0.99996933,-0.99998707,0.00508475,0,0)">
					<g>
						<polygon id="rect108-9" class="st16" points="26,-12.2 26.7,-12.2 26.7,-11.5 26,-11.5 						"/>
					</g>
				</g>
				<g transform="matrix(0.00783239,0.99996933,-0.99998707,0.00508475,0,0)">
					<g>
						<polygon id="rect110-1" class="st17" points="26,-12.6 26.7,-12.6 26.7,-12.1 26,-12.1 						"/>
					</g>
				</g>
				<g transform="matrix(0.00783239,0.99996933,-0.99998707,0.00508475,0,0)">
					<g>
						<polygon id="rect112-1" class="st4" points="26,-15.7 26.7,-15.7 26.7,-12.6 26,-12.6 						"/>
					</g>
				</g>
				<path id="path114-1" class="st11" d="M3,23.9l0,1.5c0,0,1.1,0.5,1.1,1.3c0,0.8,0.1,14.6,0.1,14.6c0,1-1,1.7-2.1,1.7
					C2,43,2,43,1.9,43c-0.8,0.1-1.4,0.6-1.3,1.2l0,2.9l1.6,0l0-1.4l1.2,0l0,1.4H2.8l0,1.3l1,0l0-2.8l-2,0l0,1.4l-0.8,0l0-2.9
					C0.9,43.6,1.5,43,2.2,43c0.1,0,0.1,0,0.2,0c1.2,0,2.1-0.8,2.1-1.7c0,0-0.1-13.8-0.1-14.6c0-0.8-1.1-1.3-1.1-1.3l0-1.5L3,23.9
					L3,23.9z"/>
				<g transform="matrix(0.00783239,0.99996933,-0.99998707,0.00508475,0,0)">
					<g>
						<polygon id="rect116-7" class="st11" points="46.9,-0.4 47.1,-0.4 47.1,0.2 46.9,0.2 						"/>
					</g>
				</g>
				<g transform="matrix(0.00783239,0.99996933,-0.99998707,0.00508475,0,0)">
					<g>
						<polygon id="rect118-2" class="st11" points="23.9,-3 24,-3 24,-2.4 23.9,-2.4 						"/>
					</g>
				</g>
				<path id="path120-9" class="st11" d="M13.5,25.6c0.3,0,0.5,0.2,0.5,0.4l0,5.1c0,0.2-0.2,0.4-0.5,0.4h0.2c0.3,0,0.5-0.2,0.5-0.4
					l0-5.1c0-0.2-0.2-0.4-0.5-0.4L13.5,25.6L13.5,25.6L13.5,25.6z"/>
				<path id="path122-0" class="st11" d="M13.5,33.1c0.3,0,0.5,0.2,0.5,0.4l0,5.1c0,0.2-0.2,0.4-0.5,0.4h0.2c0.3,0,0.5-0.2,0.5-0.4
					l0-5.1c0-0.2-0.2-0.4-0.5-0.4H13.5z"/>
				<path id="path124-6" class="st11" d="M25.7,43.9c0.3,0,0.5,0.2,0.5,0.4l0,4l-0.1,0l0-4c0-0.2-0.2-0.4-0.5-0.4L25.7,43.9z"/>
				<g transform="matrix(0.00783239,0.99996933,-0.99998707,0.00508475,0,0)">
					<g>
						<polygon id="rect126-3" class="st11" points="23.9,-2.4 25.7,-2.4 25.7,-2.3 23.9,-2.3 						"/>
					</g>
				</g>
				<g transform="matrix(0.00783239,0.99996933,-0.99998707,0.00508475,0,0)">
					<g>
						<polygon id="rect128-9" class="st6" points="47,-25.8 48.4,-25.8 48.4,-10.5 47,-10.5 						"/>
					</g>
				</g>
				<path id="path130-6" class="st18" d="M26.2,44.3l0,4l7.5,0l0-1.7h-0.3c-0.2,0-0.4-0.1-0.4-0.3c0-0.2,0.2-0.3,0.4-0.3h0.3
					l-0.1-7.3l-12,0.1c-0.3,0-0.5-0.2-0.5-0.4l0,0l11.8-0.4l0-1.4l-11.8-0.3l0,0c0-0.2,0.2-0.4,0.5-0.4l12-0.1l-0.1-6.6l-12,0.1
					c-0.3,0-0.5-0.2-0.5-0.4l0,0L33,28.3l0-1.4l-11.8-0.3l0,0c0-0.2,0.2-0.4,0.5-0.4l12-0.1l0-2.4L3.2,23.9l0,1.5
					c0,0,1.1,0.5,1.1,1.3c0,0.8,0.1,14.6,0.1,14.6c0,1-1,1.7-2.1,1.7c-0.1,0-0.1,0-0.2,0c-0.8,0.1-1.4,0.6-1.3,1.2l0,2.9l1.6,0
					l0-1.4l1.2,0l0,2.8l7.2,0l0-1.2l8,0l0,0.1c0,0.2,0.2,0.4,0.5,0.4l2,0c0.3,0,0.5-0.2,0.5-0.4l0-1.9c0-0.2-0.2-0.4-0.5-0.4l-2,0
					c-0.3,0-0.5,0.2-0.5,0.4l0,0.1l-8,0l0-1.2c0-0.2,0.2-0.4,0.5-0.4l14.4-0.1C26,43.9,26.2,44.1,26.2,44.3L26.2,44.3z M9.7,31.6
					c-0.3,0-0.5-0.2-0.5-0.4l0-5.1c0-0.2,0.2-0.4,0.5-0.4l4,0c0.3,0,0.5,0.2,0.5,0.4l0,5.1c0,0.2-0.2,0.4-0.5,0.4L9.7,31.6L9.7,31.6
					z M9.7,39.1c-0.3,0-0.5-0.2-0.5-0.4l0-5.1c0-0.2,0.2-0.4,0.5-0.4l4,0c0.3,0,0.5,0.2,0.5,0.4l0,5.1c0,0.2-0.2,0.4-0.5,0.4
					L9.7,39.1z"/>
				<path id="path132-2" class="st19" d="M11.9,47.2l6.9,0l0,0.1c0,0.2,0.2,0.4,0.5,0.4l2,0c0.3,0,0.5-0.2,0.5-0.4l0-1.9
					c0-0.2-0.2-0.4-0.5-0.4l-2,0c-0.3,0-0.5,0.2-0.5,0.4l0,0.1l-6.9,0"/>
				<path id="path134-8" class="st20" d="M16.1,47.2l2.7,0l0,0.1c0,0.2,0.2,0.4,0.5,0.4l2,0c0.3,0,0.5-0.2,0.5-0.4l0-1.9
					c0-0.2-0.2-0.4-0.5-0.4l-2,0c-0.3,0-0.5,0.2-0.5,0.4l0,0.1l-2.7,0"/>
				<g transform="matrix(0.00783239,0.99996933,-0.99998707,0.00508475,0,0)">
					<g>
						<polygon id="rect136-0" class="st21" points="47.1,-0.7 48.4,-0.7 48.4,0.3 47.1,0.3 						"/>
					</g>
				</g>
				<g transform="matrix(0.00783239,0.99996933,-0.99998707,0.00508475,0,0)">
					<g>
						<polygon id="rect138-6" class="st22" points="47.1,-1.4 48.4,-1.4 48.4,0.2 47.1,0.2 						"/>
					</g>
				</g>
				<path id="path808" class="st23" d="M135.8,30.4l-0.1-0.2c0-1.6-0.7-2.3-1.6-2.8c0.3-0.1,0.5-0.1,0.6-0.5
					c0.4-0.1,0.5-0.3,0.6-0.6c0.1-0.1,0.5-0.3,0.5-0.7c0.2-0.2,0.3-0.4,0.3-0.6c0.2-0.3,0.3-0.5,0.2-0.7c0.3-0.4,0.2-0.5,0-0.7
					c0.2-0.4,0-0.8-0.6-0.7c-0.2-0.4-0.7-0.3-0.8-0.3c-0.1-0.1-0.2-0.2-0.6-0.2c-0.2-0.2-0.5-0.2-0.8-0.1c-0.3-0.3-0.5-0.1-0.8,0
					c-0.4-0.1-0.5,0-0.7,0.1c-0.4-0.1-0.5,0.1-0.7,0.3l-0.2,0c-0.6,0.4-0.9,1.2-1.1,1.5c-0.1-0.4-0.4-1.2-1.1-1.5l-0.2,0
					c-0.2-0.2-0.3-0.4-0.7-0.3c-0.2-0.1-0.3-0.2-0.7-0.1c-0.2-0.1-0.3-0.2-0.5-0.2c-0.1,0-0.2,0-0.3,0.1c-0.3-0.1-0.5-0.1-0.8,0.1
					c-0.4,0-0.5,0-0.6,0.2c-0.1,0-0.6-0.1-0.8,0.3c-0.6-0.1-0.8,0.4-0.6,0.7c-0.1,0.2-0.2,0.4,0,0.7c-0.1,0.2,0,0.4,0.2,0.7
					c-0.1,0.3,0.1,0.5,0.3,0.6c0,0.4,0.3,0.6,0.5,0.7c0,0.2,0.1,0.4,0.6,0.6c0.1,0.3,0.3,0.4,0.6,0.5c-0.8,0.5-1.6,1.2-1.6,2.8
					l-0.1,0.2c-1,0.6-1.8,2.6-0.5,4.1c0.1,0.5,0.2,0.9,0.4,1.2c0.2,1.6,1.5,2.3,1.8,2.4c0.5,0.4,1,0.8,1.8,1c0.7,0.7,1.4,1,2.2,1
					c0,0,0,0,0,0c0.7,0,1.5-0.3,2.2-1c0.7-0.3,1.3-0.6,1.8-1c0.3-0.1,1.6-0.8,1.8-2.4c0.1-0.4,0.3-0.7,0.4-1.2
					C137.7,32.9,136.8,31,135.8,30.4L135.8,30.4z M135,30.1c0,0.7-3.3-2.3-2.8-2.4C133.7,27.4,135,28.4,135,30.1z M133.6,33.4
					c-0.8,0.6-2,0.2-2.7-0.8c-0.6-1-0.5-2.3,0.3-2.8c0.8-0.6,2-0.2,2.7,0.8C134.6,31.5,134.4,32.8,133.6,33.4z M131.4,23.2
					c0,0.1,0.1,0.2,0.1,0.3c0.2-0.2,0.3-0.4,0.6-0.6c0,0.1-0.1,0.2,0.1,0.3c0.1-0.2,0.3-0.3,0.5-0.5c-0.1,0.2,0,0.3,0,0.3
					c0.2-0.2,0.3-0.3,0.7-0.4c-0.1,0.1-0.2,0.2-0.1,0.3c0.2-0.1,0.4-0.2,0.8-0.3c-0.1,0.1-0.3,0.2-0.2,0.3c0.2-0.1,0.5-0.2,0.7-0.2
					c-0.1,0.1-0.2,0.2-0.1,0.3c0.2-0.1,0.6-0.2,0.9-0.1l-0.2,0.2c0,0,0.5,0,0.8,0c-0.1,0.2-0.2,0.3-0.3,0.6c0,0,0.2,0,0.4,0
					c-0.2,0.3-0.4,0.4-0.5,0.6c0.1,0.1,0.2,0.1,0.4,0c-0.1,0.2-0.4,0.4-0.5,0.6c0,0,0.1,0.1,0.3,0c-0.2,0.2-0.4,0.4-0.6,0.5
					c0,0.1,0.2,0.1,0.3,0.1c-0.2,0.2-0.5,0.4-0.8,0.5c0.1,0.1,0.2,0.1,0.3,0.1c-0.2,0.2-0.5,0.3-0.8,0.4c0.1,0.1,0.1,0.1,0.2,0.1
					c-0.3,0.2-0.8,0.1-0.9,0.2c0,0.1,0.1,0.2,0.2,0.2c-0.5,0-1.9,0-2.2-1.1c0.5-0.6,1.5-1.3,3.2-2.2c-1.3,0.5-2.5,1.1-3.4,1.9
					C130,25.2,130.8,23.8,131.4,23.2L131.4,23.2z M132,28.5c0,0.5-0.7,1-1.8,0.9c-1.1,0-1.8-0.5-1.8-1c0-0.4,0.9-1.1,1.8-1.1
					C131,27.2,132,27.9,132,28.5L132,28.5z M126,26.8c0.1,0,0.2-0.1,0.2-0.1c-0.3-0.1-0.6-0.2-0.8-0.4c0.1,0,0.2,0,0.3-0.1
					c-0.3-0.1-0.6-0.3-0.8-0.5c0.1,0,0.3,0,0.3-0.1c-0.2-0.2-0.5-0.3-0.6-0.5c0.2,0,0.3,0,0.3,0c-0.2-0.2-0.4-0.4-0.5-0.6
					c0.1,0.1,0.3,0.1,0.4,0c-0.1-0.1-0.3-0.2-0.5-0.6c0.2,0,0.3,0,0.4,0c-0.1-0.3-0.2-0.5-0.3-0.6c0.3,0,0.8,0,0.8,0L125,23
					c0.3-0.1,0.7,0,0.9,0.1c0.1-0.1,0-0.2-0.1-0.3c0.3,0,0.5,0.1,0.7,0.2c0.1-0.1-0.1-0.2-0.2-0.3c0.4,0.1,0.6,0.2,0.8,0.3
					c0.1-0.1,0-0.2-0.1-0.3c0.3,0.1,0.5,0.3,0.7,0.4c0.1-0.1,0.1-0.1,0-0.3c0.2,0.1,0.4,0.3,0.5,0.5c0.1-0.1,0.1-0.2,0.1-0.3
					c0.2,0.2,0.4,0.4,0.6,0.6c0,0,0.1-0.1,0.1-0.3c0.6,0.6,1.4,2,0.2,2.5c-1-0.8-2.1-1.4-3.4-1.9c1.7,0.9,2.6,1.6,3.2,2.2
					c-0.3,1.1-1.7,1.2-2.2,1.1c0.1-0.1,0.2-0.1,0.2-0.2C126.8,26.9,126.3,27,126,26.8L126,26.8z M127.9,27.7c0.6,0.1-2.7,3-2.8,2.4
					C125.1,28.3,126.4,27.4,127.9,27.7z M124.5,34.2c-0.8-0.7-1.1-2.6,0.4-3.5C125.8,30.5,125.2,34.5,124.5,34.2z M127.6,37.7
					c-0.5,0.3-1.5,0.2-2.3-1c-0.5-1-0.5-1.9-0.1-2.2c0.6-0.3,1.4,0.1,2.1,0.9C127.8,36.1,128.1,37.3,127.6,37.7z M126.7,33.5
					C126.7,33.5,126.7,33.5,126.7,33.5c-0.8-0.6-1-1.8-0.3-2.8c0.6-1,1.8-1.3,2.7-0.8c0.8,0.6,1,1.8,0.3,2.8
					C128.7,33.7,127.5,34,126.7,33.5L126.7,33.5z M130.1,39.6c-1,0-2-0.8-2-1.1c0-0.4,1.2-0.8,2-0.8c0.8,0,1.9,0.3,1.9,0.7
					C132.1,38.8,131.1,39.6,130.1,39.6L130.1,39.6z M132.2,35.2c0,1-0.9,1.9-2,1.9c-1.1,0-2-0.8-2-1.9c0-1,0.9-1.9,2-1.9
					C131.3,33.3,132.2,34.2,132.2,35.2C132.2,35.2,132.2,35.2,132.2,35.2L132.2,35.2z M135,36.7c-0.9,1.2-2,1.3-2.4,0.9
					c-0.5-0.4-0.1-1.8,0.5-2.5c0.7-0.8,1.5-1.4,2-0.9C135.4,34.6,135.6,35.9,135,36.7L135,36.7z M135.7,34.2
					c-0.7,0.3-1.3-3.7-0.4-3.5C136.7,31.6,136.4,33.5,135.7,34.2z"/>
				<g transform="matrix(13.9027, 0, 0, 13.9177, 0.124623, -0.000673296)">
					<g>
						<polygon id="polygon3153-8_21_" class="st13" points="1.4,0.2 1.4,0.5 1.4,0.7 1.4,1 1.6,1.1 1.9,1.1 2,1 2,0.7 2,0.5 2,0.2 
							1.9,0.1 1.6,0.1 						"/>
					</g>
				</g>
				<g transform="matrix(13.9027, 0, 0, 13.9177, 0.124623, -0.000673296)">
					<g>
						<polygon id="polygon3159-0_21_" class="st13" points="1.4,0.2 1.4,0.5 1.4,0.7 1.4,1 1.6,1.1 1.9,1.1 2,1 2,0.7 2,0.5 2,0.2 
							1.9,0.1 1.6,0.1 						"/>
					</g>
				</g>
				
					<rect id="connector1pin" x="23.2" y="4.6" transform="matrix(-0.6022 0.7983 -0.7983 -0.6022 42.3288 -10.8694)" class="st24" width="1.4" height="1"/>
				<g transform="matrix(13.9027, 0, 0, 13.9177, 0.124623, -0.000673296)">
					<g>
						<polygon id="polygon3215-9_21_" class="st25" points="1.6,0.4 1.7,0.4 1.7,0.3 1.6,0.3 						"/>
					</g>
				</g>
				<g transform="matrix(13.9027, 0, 0, 13.9177, 0.124623, -0.000673296)">
					<g>
						<polygon id="polygon3217-7_21_" class="st26" points="1.8,0.3 1.7,0.3 1.6,0.3 1.8,0.3 						"/>
					</g>
				</g>
				<g transform="matrix(13.9027, 0, 0, 13.9177, 0.124623, -0.000673296)">
					<g>
						<polygon id="polygon3219-2_21_" class="st27" points="1.8,0.4 1.8,0.3 1.8,0.3 1.8,0.4 						"/>
					</g>
				</g>
				
					<rect id="connector0pin" x="23.2" y="11.8" transform="matrix(-0.6035 0.7974 -0.7974 -0.6035 48.0974 0.7099)" class="st24" width="1.4" height="1"/>
				<g transform="matrix(13.9027, 0, 0, 13.9177, 0.124623, -0.000673296)">
					<g>
						<polygon id="polygon3225-89_21_" class="st25" points="1.6,1 1.7,0.9 1.7,0.8 1.6,0.8 						"/>
					</g>
				</g>
				<g transform="matrix(13.9027, 0, 0, 13.9177, 0.124623, -0.000673296)">
					<g>
						<polygon id="polygon3227-07_21_" class="st26" points="1.8,0.8 1.7,0.8 1.6,0.8 1.8,0.8 						"/>
					</g>
				</g>
				<g transform="matrix(13.9027, 0, 0, 13.9177, 0.124623, -0.000673296)">
					<g>
						<polygon id="polygon3229-8_21_" class="st27" points="1.8,0.9 1.8,0.8 1.8,0.8 1.8,1 						"/>
					</g>
				</g>
				<g transform="matrix(13.9027, 0, 0, 13.9177, 0.124623, -0.000673296)">
					<g>
						<polygon id="polygon1206" class="st28" points="1.6,1 1.7,0.9 1.8,0.9 1.8,1 						"/>
					</g>
				</g>
				<g transform="matrix(13.9027, 0, 0, 13.9177, 0.124623, -0.000673296)">
					<g>
						<polygon id="polygon3153-8_20_" class="st13" points="2,0.2 2,0.5 2,0.7 2,1 2.1,1.1 2.4,1.1 2.5,1 2.5,0.7 2.5,0.5 2.5,0.2 
							2.4,0.1 2.1,0.1 						"/>
					</g>
				</g>
				<g transform="matrix(13.9027, 0, 0, 13.9177, 0.124623, -0.000673296)">
					<g>
						<polygon id="polygon3159-0_20_" class="st13" points="2,0.2 2,0.5 2,0.7 2,1 2.1,1.1 2.4,1.1 2.5,1 2.5,0.7 2.5,0.5 2.5,0.2 
							2.4,0.1 2.1,0.1 						"/>
					</g>
				</g>
				
					<rect id="connector3pin" x="30.4" y="4.6" transform="matrix(-0.606 0.7955 -0.7955 -0.606 53.9778 -16.5162)" class="st24" width="1.4" height="1"/>
				<g transform="matrix(13.9027, 0, 0, 13.9177, 0.124623, -0.000673296)">
					<g>
						<polygon id="polygon3215-9_20_" class="st25" points="2.1,0.4 2.2,0.4 2.2,0.3 2.1,0.3 						"/>
					</g>
				</g>
				<g transform="matrix(13.9027, 0, 0, 13.9177, 0.124623, -0.000673296)">
					<g>
						<polygon id="polygon3217-7_20_" class="st26" points="2.3,0.3 2.2,0.3 2.1,0.3 2.3,0.3 						"/>
					</g>
				</g>
				<g transform="matrix(13.9027, 0, 0, 13.9177, 0.124623, -0.000673296)">
					<g>
						<polygon id="polygon1204" class="st27" points="2.3,0.4 2.3,0.3 2.3,0.3 2.3,0.4 						"/>
					</g>
				</g>
				<g transform="matrix(13.9027, 0, 0, 13.9177, 0.124623, -0.000673296)">
					<g>
						<polygon id="polygon1208" class="st28" points="2.3,0.4 2.1,0.4 2.2,0.4 2.3,0.4 						"/>
					</g>
				</g>
				
					<rect id="connector2pin" x="30.4" y="11.8" transform="matrix(-0.6076 0.7942 -0.7942 -0.6076 59.7438 -4.8883)" class="st24" width="1.4" height="1"/>
				<g transform="matrix(13.9027, 0, 0, 13.9177, 0.124623, -0.000673296)">
					<g>
						<polygon id="polygon3225-89_20_" class="st25" points="2.1,1 2.2,0.9 2.2,0.8 2.1,0.8 						"/>
					</g>
				</g>
				<g transform="matrix(13.9027, 0, 0, 13.9177, 0.124623, -0.000673296)">
					<g>
						<polygon id="polygon3227-07_20_" class="st26" points="2.3,0.8 2.2,0.8 2.1,0.8 2.3,0.8 						"/>
					</g>
				</g>
				<g transform="matrix(13.9027, 0, 0, 13.9177, 0.124623, -0.000673296)">
					<g>
						<polygon id="polygon3229-8_20_" class="st27" points="2.3,0.9 2.3,0.8 2.3,0.8 2.3,1 						"/>
					</g>
				</g>
				<g transform="matrix(13.9027, 0, 0, 13.9177, 0.124623, -0.000673296)">
					<g>
						<polygon id="polygon1200" class="st28" points="2.3,1 2.1,1 2.2,0.9 2.3,0.9 						"/>
					</g>
				</g>
				<g transform="matrix(13.9027, 0, 0, 13.9177, 0.124623, -0.000673296)">
					<g>
						<polygon id="polygon3153-8_19_" class="st13" points="2.5,0.2 2.5,0.5 2.5,0.7 2.5,1 2.6,1.1 2.9,1.1 3,1 3,0.7 3,0.5 3,0.2 
							2.9,0.1 2.6,0.1 						"/>
					</g>
				</g>
				<g transform="matrix(13.9027, 0, 0, 13.9177, 0.124623, -0.000673296)">
					<g>
						<polygon id="polygon3159-0_19_" class="st13" points="2.5,0.2 2.5,0.5 2.5,0.7 2.5,1 2.6,1.1 2.9,1.1 3,1 3,0.7 3,0.5 3,0.2 
							2.9,0.1 2.6,0.1 						"/>
					</g>
				</g>
				
					<rect id="connector5pin" x="37.6" y="4.6" transform="matrix(-0.6101 0.7923 -0.7923 -0.6101 65.6315 -22.0763)" class="st24" width="1.4" height="1"/>
				<g transform="matrix(13.9027, 0, 0, 13.9177, 0.124623, -0.000673296)">
					<g>
						<polygon id="polygon3215-9_19_" class="st25" points="2.7,0.4 2.7,0.4 2.7,0.3 2.7,0.3 						"/>
					</g>
				</g>
				<g transform="matrix(13.9027, 0, 0, 13.9177, 0.124623, -0.000673296)">
					<g>
						<polygon id="polygon3217-7_19_" class="st26" points="2.8,0.3 2.7,0.3 2.7,0.3 2.8,0.3 						"/>
					</g>
				</g>
				<g transform="matrix(13.9027, 0, 0, 13.9177, 0.124623, -0.000673296)">
					<g>
						<polygon id="polygon3219-2_19_" class="st27" points="2.8,0.4 2.8,0.3 2.8,0.3 2.8,0.4 						"/>
					</g>
				</g>
				<g transform="matrix(13.9027, 0, 0, 13.9177, 0.124623, -0.000673296)">
					<g>
						<polygon id="polygon1202" class="st28" points="2.8,0.4 2.8,0.4 2.7,0.4 2.7,0.4 						"/>
					</g>
				</g>
				
					<rect id="connector4pin" x="37.6" y="11.8" transform="matrix(-0.6117 0.7911 -0.7911 -0.6117 71.3864 -10.4091)" class="st24" width="1.4" height="1"/>
				<g transform="matrix(13.9027, 0, 0, 13.9177, 0.124623, -0.000673296)">
					<g>
						<polygon id="polygon3225-89_19_" class="st25" points="2.7,1 2.7,0.9 2.7,0.8 2.7,0.8 						"/>
					</g>
				</g>
				<g transform="matrix(13.9027, 0, 0, 13.9177, 0.124623, -0.000673296)">
					<g>
						<polygon id="polygon3227-07_19_" class="st26" points="2.8,0.8 2.7,0.8 2.7,0.8 2.8,0.8 						"/>
					</g>
				</g>
				<g transform="matrix(13.9027, 0, 0, 13.9177, 0.124623, -0.000673296)">
					<g>
						<polygon id="polygon3229-8_19_" class="st27" points="2.8,0.9 2.8,0.8 2.8,0.8 2.8,1 						"/>
					</g>
				</g>
				<g transform="matrix(13.9027, 0, 0, 13.9177, 0.124623, -0.000673296)">
					<g>
						<polygon id="polygon1210" class="st28" points="2.7,1 2.7,0.9 2.8,0.9 2.8,1 						"/>
					</g>
				</g>
				<g transform="matrix(13.9027, 0, 0, 13.9177, 0.124623, -0.000673296)">
					<g>
						<polygon id="polygon3153-8_18_" class="st13" points="3,0.2 3,0.5 3,0.7 3,1 3.1,1.1 3.4,1.1 3.5,1 3.5,0.7 3.5,0.5 3.5,0.2 
							3.4,0.1 3.1,0.1 						"/>
					</g>
				</g>
				<g transform="matrix(13.9027, 0, 0, 13.9177, 0.124623, -0.000673296)">
					<g>
						<polygon id="polygon3159-0_18_" class="st13" points="3,0.2 3,0.5 3,0.7 3,1 3.1,1.1 3.4,1.1 3.5,1 3.5,0.7 3.5,0.5 3.5,0.2 
							3.4,0.1 3.1,0.1 						"/>
					</g>
				</g>
				
					<rect id="connector7pin" x="44.8" y="4.6" transform="matrix(-0.6142 0.7891 -0.7891 -0.6142 77.4152 -27.5744)" class="st24" width="1.4" height="1"/>
				<g transform="matrix(13.9027, 0, 0, 13.9177, 0.124623, -0.000673296)">
					<g>
						<polygon id="polygon3215-9_18_" class="st25" points="3.2,0.4 3.2,0.4 3.2,0.3 3.2,0.3 						"/>
					</g>
				</g>
				<g transform="matrix(13.9027, 0, 0, 13.9177, 0.124623, -0.000673296)">
					<g>
						<polygon id="polygon3217-7_18_" class="st26" points="3.3,0.3 3.2,0.3 3.2,0.3 3.3,0.3 						"/>
					</g>
				</g>
				<g transform="matrix(13.9027, 0, 0, 13.9177, 0.124623, -0.000673296)">
					<g>
						<polygon id="polygon3219-2_18_" class="st27" points="3.3,0.4 3.3,0.3 3.3,0.3 3.3,0.4 						"/>
					</g>
				</g>
				<g transform="matrix(13.9027, 0, 0, 13.9177, 0.124623, -0.000673296)">
					<g>
						<polygon id="polygon1212" class="st28" points="3.3,0.4 3.3,0.4 3.2,0.4 3.2,0.4 						"/>
					</g>
				</g>
				
					<rect id="connector6pin" x="44.8" y="11.8" transform="matrix(-0.6159 0.7878 -0.7878 -0.6159 83.139 -15.9081)" class="st24" width="1.4" height="1"/>
				<g transform="matrix(13.9027, 0, 0, 13.9177, 0.124623, -0.000673296)">
					<g>
						<polygon id="polygon3225-89_18_" class="st25" points="3.2,1 3.2,0.9 3.2,0.8 3.2,0.8 						"/>
					</g>
				</g>
				<g transform="matrix(13.9027, 0, 0, 13.9177, 0.124623, -0.000673296)">
					<g>
						<polygon id="polygon3227-07_18_" class="st26" points="3.3,0.8 3.2,0.8 3.2,0.8 3.3,0.8 						"/>
					</g>
				</g>
				<g transform="matrix(13.9027, 0, 0, 13.9177, 0.124623, -0.000673296)">
					<g>
						<polygon id="polygon3229-8_18_" class="st27" points="3.3,0.9 3.3,0.8 3.3,0.8 3.3,1 						"/>
					</g>
				</g>
				<g transform="matrix(13.9027, 0, 0, 13.9177, 0.124623, -0.000673296)">
					<g>
						<polygon id="polygon1214" class="st28" points="3.2,1 3.2,0.9 3.3,0.9 3.3,1 						"/>
					</g>
				</g>
				<g transform="matrix(13.9027, 0, 0, 13.9177, 0.124623, -0.000673296)">
					<g>
						<polygon id="polygon3153-8_17_" class="st13" points="3.5,0.2 3.5,0.5 3.5,0.7 3.5,1 3.6,1.1 3.9,1.1 4,1 4,0.7 4,0.5 4,0.2 
							3.9,0.1 3.6,0.1 						"/>
					</g>
				</g>
				<g transform="matrix(13.9027, 0, 0, 13.9177, 0.124623, -0.000673296)">
					<g>
						<polygon id="polygon3159-0_17_" class="st13" points="3.5,0.2 3.5,0.5 3.5,0.7 3.5,1 3.6,1.1 3.9,1.1 4,1 4,0.7 4,0.5 4,0.2 
							3.9,0.1 3.6,0.1 						"/>
					</g>
				</g>
				
					<rect id="connector9pin" x="51.9" y="4.6" transform="matrix(-0.6183 0.7859 -0.7859 -0.6183 89.238 -33.0652)" class="st24" width="1.4" height="1"/>
				<g transform="matrix(13.9027, 0, 0, 13.9177, 0.124623, -0.000673296)">
					<g>
						<polygon id="polygon3215-9_17_" class="st25" points="3.7,0.4 3.7,0.4 3.7,0.3 3.7,0.3 						"/>
					</g>
				</g>
				<g transform="matrix(13.9027, 0, 0, 13.9177, 0.124623, -0.000673296)">
					<g>
						<polygon id="polygon3217-7_17_" class="st26" points="3.8,0.3 3.7,0.3 3.7,0.3 3.9,0.3 						"/>
					</g>
				</g>
				<g transform="matrix(13.9027, 0, 0, 13.9177, 0.124623, -0.000673296)">
					<g>
						<polygon id="polygon3219-2_17_" class="st27" points="3.8,0.4 3.8,0.3 3.9,0.3 3.9,0.4 						"/>
					</g>
				</g>
				<g transform="matrix(13.9027, 0, 0, 13.9177, 0.124623, -0.000673296)">
					<g>
						<polygon id="polygon1216" class="st28" points="3.8,0.4 3.9,0.4 3.7,0.4 3.7,0.4 						"/>
					</g>
				</g>
				
					<rect id="connector8pin" x="51.9" y="11.8" transform="matrix(-0.62 0.7846 -0.7846 -0.62 94.9503 -21.3594)" class="st24" width="1.4" height="1"/>
				<g transform="matrix(13.9027, 0, 0, 13.9177, 0.124623, -0.000673296)">
					<g>
						<polygon id="polygon3225-89_17_" class="st25" points="3.7,1 3.7,0.9 3.7,0.8 3.7,0.8 						"/>
					</g>
				</g>
				<g transform="matrix(13.9027, 0, 0, 13.9177, 0.124623, -0.000673296)">
					<g>
						<polygon id="polygon3227-07_17_" class="st26" points="3.8,0.8 3.7,0.8 3.7,0.8 3.9,0.8 						"/>
					</g>
				</g>
				<g transform="matrix(13.9027, 0, 0, 13.9177, 0.124623, -0.000673296)">
					<g>
						<polygon id="polygon3229-8_17_" class="st27" points="3.8,0.9 3.8,0.8 3.9,0.8 3.9,1 						"/>
					</g>
				</g>
				<g transform="matrix(13.9027, 0, 0, 13.9177, 0.124623, -0.000673296)">
					<g>
						<polygon id="polygon1218" class="st28" points="3.7,1 3.7,0.9 3.8,0.9 3.9,1 						"/>
					</g>
				</g>
				<g transform="matrix(13.9027, 0, 0, 13.9177, 0.124623, -0.000673296)">
					<g>
						<polygon id="polygon3153-8_16_" class="st13" points="4,0.2 4,0.5 4,0.7 4,1 4.2,1.1 4.4,1.1 4.6,1 4.6,0.7 4.6,0.5 4.6,0.2 
							4.4,0.1 4.2,0.1 						"/>
					</g>
				</g>
				<g transform="matrix(13.9027, 0, 0, 13.9177, 0.124623, -0.000673296)">
					<g>
						<polygon id="polygon3159-0_16_" class="st13" points="4,0.2 4,0.5 4,0.7 4,1 4.2,1.1 4.4,1.1 4.6,1 4.6,0.7 4.6,0.5 4.6,0.2 
							4.4,0.1 4.2,0.1 						"/>
					</g>
				</g>
				
					<rect id="connector11pin" x="59.1" y="4.6" transform="matrix(-0.6225 0.7827 -0.7827 -0.6225 101.1197 -38.5077)" class="st24" width="1.4" height="1"/>
				<g transform="matrix(13.9027, 0, 0, 13.9177, 0.124623, -0.000673296)">
					<g>
						<polygon id="polygon3215-9_16_" class="st25" points="4.2,0.4 4.3,0.4 4.3,0.3 4.2,0.3 						"/>
					</g>
				</g>
				<g transform="matrix(13.9027, 0, 0, 13.9177, 0.124623, -0.000673296)">
					<g>
						<polygon id="polygon3217-7_16_" class="st26" points="4.3,0.3 4.3,0.3 4.2,0.3 4.4,0.3 						"/>
					</g>
				</g>
				<g transform="matrix(13.9027, 0, 0, 13.9177, 0.124623, -0.000673296)">
					<g>
						<polygon id="polygon3219-2_16_" class="st27" points="4.3,0.4 4.3,0.3 4.4,0.3 4.4,0.4 						"/>
					</g>
				</g>
				<g transform="matrix(13.9027, 0, 0, 13.9177, 0.124623, -0.000673296)">
					<g>
						<polygon id="polygon1220" class="st28" points="4.3,0.4 4.4,0.4 4.2,0.4 4.3,0.4 						"/>
					</g>
				</g>
				
					<rect id="connector10pin" x="59.1" y="11.8" transform="matrix(-0.6241 0.7813 -0.7813 -0.6241 106.8201 -26.7624)" class="st24" width="1.4" height="1"/>
				<g transform="matrix(13.9027, 0, 0, 13.9177, 0.124623, -0.000673296)">
					<g>
						<polygon id="polygon3225-89_16_" class="st25" points="4.2,1 4.3,0.9 4.3,0.8 4.2,0.8 						"/>
					</g>
				</g>
				<g transform="matrix(13.9027, 0, 0, 13.9177, 0.124623, -0.000673296)">
					<g>
						<polygon id="polygon3227-07_16_" class="st26" points="4.3,0.8 4.3,0.8 4.2,0.8 4.4,0.8 						"/>
					</g>
				</g>
				<g transform="matrix(13.9027, 0, 0, 13.9177, 0.124623, -0.000673296)">
					<g>
						<polygon id="polygon3229-8_16_" class="st27" points="4.3,0.9 4.3,0.8 4.4,0.8 4.4,1 						"/>
					</g>
				</g>
				<g transform="matrix(13.9027, 0, 0, 13.9177, 0.124623, -0.000673296)">
					<g>
						<polygon id="polygon1222" class="st28" points="4.2,1 4.3,0.9 4.3,0.9 4.4,1 						"/>
					</g>
				</g>
				<g transform="matrix(13.9027, 0, 0, 13.9177, 0.124623, -0.000673296)">
					<g>
						<polygon id="polygon3153-8_15_" class="st13" points="4.6,0.2 4.6,0.5 4.6,0.7 4.6,1 4.7,1.1 5,1.1 5.1,1 5.1,0.7 5.1,0.5 
							5.1,0.2 5,0.1 4.7,0.1 						"/>
					</g>
				</g>
				<g transform="matrix(13.9027, 0, 0, 13.9177, 0.124623, -0.000673296)">
					<g>
						<polygon id="polygon3159-0_15_" class="st13" points="4.6,0.2 4.6,0.5 4.6,0.7 4.6,1 4.7,1.1 5,1.1 5.1,1 5.1,0.7 5.1,0.5 
							5.1,0.2 5,0.1 4.7,0.1 						"/>
					</g>
				</g>
				
					<rect id="connector13pin" x="66.3" y="4.6" transform="matrix(-0.6266 0.7794 -0.7794 -0.6266 113.06 -43.9015)" class="st24" width="1.4" height="1"/>
				<g transform="matrix(13.9027, 0, 0, 13.9177, 0.124623, -0.000673296)">
					<g>
						<polygon id="polygon3215-9_15_" class="st25" points="4.7,0.4 4.8,0.4 4.8,0.3 4.7,0.3 						"/>
					</g>
				</g>
				<g transform="matrix(13.9027, 0, 0, 13.9177, 0.124623, -0.000673296)">
					<g>
						<polygon id="polygon3217-7_15_" class="st26" points="4.9,0.3 4.8,0.3 4.7,0.3 4.9,0.3 						"/>
					</g>
				</g>
				<g transform="matrix(13.9027, 0, 0, 13.9177, 0.124623, -0.000673296)">
					<g>
						<polygon id="polygon3219-2_15_" class="st27" points="4.9,0.4 4.9,0.3 4.9,0.3 4.9,0.4 						"/>
					</g>
				</g>
				<g transform="matrix(13.9027, 0, 0, 13.9177, 0.124623, -0.000673296)">
					<g>
						<polygon id="polygon1224" class="st28" points="4.9,0.4 4.9,0.4 4.7,0.4 4.8,0.4 						"/>
					</g>
				</g>
				
					<rect id="connector12pin" x="66.3" y="11.8" transform="matrix(-0.6282 0.778 -0.778 -0.6282 118.7483 -32.1165)" class="st24" width="1.4" height="1"/>
				<g transform="matrix(13.9027, 0, 0, 13.9177, 0.124623, -0.000673296)">
					<g>
						<polygon id="polygon3225-89_15_" class="st25" points="4.7,1 4.8,0.9 4.8,0.8 4.7,0.8 						"/>
					</g>
				</g>
				<g transform="matrix(13.9027, 0, 0, 13.9177, 0.124623, -0.000673296)">
					<g>
						<polygon id="polygon3227-07_15_" class="st26" points="4.9,0.8 4.8,0.8 4.7,0.8 4.9,0.8 						"/>
					</g>
				</g>
				<g transform="matrix(13.9027, 0, 0, 13.9177, 0.124623, -0.000673296)">
					<g>
						<polygon id="polygon3229-8_15_" class="st27" points="4.9,0.9 4.9,0.8 4.9,0.8 4.9,1 						"/>
					</g>
				</g>
				<g transform="matrix(13.9027, 0, 0, 13.9177, 0.124623, -0.000673296)">
					<g>
						<polygon id="polygon1226" class="st28" points="4.7,1 4.8,0.9 4.9,0.9 4.9,1 						"/>
					</g>
				</g>
				<g transform="matrix(13.9027, 0, 0, 13.9177, 0.124623, -0.000673296)">
					<g>
						<polygon id="polygon3153-8_14_" class="st13" points="5.1,0.2 5.1,0.5 5.1,0.7 5.1,1 5.2,1.1 5.5,1.1 5.6,1 5.6,0.7 5.6,0.5 
							5.6,0.2 5.5,0.1 5.2,0.1 						"/>
					</g>
				</g>
				<g transform="matrix(13.9027, 0, 0, 13.9177, 0.124623, -0.000673296)">
					<g>
						<polygon id="polygon3159-0_14_" class="st13" points="5.1,0.2 5.1,0.5 5.1,0.7 5.1,1 5.2,1.1 5.5,1.1 5.6,1 5.6,0.7 5.6,0.5 
							5.6,0.2 5.5,0.1 5.2,0.1 						"/>
					</g>
				</g>
				
					<rect id="connector15pin" x="73.5" y="4.6" transform="matrix(-0.6307 0.7761 -0.7761 -0.6307 125.0586 -49.2458)" class="st24" width="1.4" height="1"/>
				<g transform="matrix(13.9027, 0, 0, 13.9177, 0.124623, -0.000673296)">
					<g>
						<polygon id="polygon3215-9_14_" class="st25" points="5.3,0.4 5.3,0.4 5.3,0.3 5.3,0.3 						"/>
					</g>
				</g>
				<g transform="matrix(13.9027, 0, 0, 13.9177, 0.124623, -0.000673296)">
					<g>
						<polygon id="polygon3217-7_14_" class="st26" points="5.4,0.3 5.3,0.3 5.3,0.3 5.4,0.3 						"/>
					</g>
				</g>
				<g transform="matrix(13.9027, 0, 0, 13.9177, 0.124623, -0.000673296)">
					<g>
						<polygon id="polygon3219-2_14_" class="st27" points="5.4,0.4 5.4,0.3 5.4,0.3 5.4,0.4 						"/>
					</g>
				</g>
				<g transform="matrix(13.9027, 0, 0, 13.9177, 0.124623, -0.000673296)">
					<g>
						<polygon id="polygon1228" class="st28" points="5.4,0.4 5.4,0.4 5.3,0.4 5.3,0.4 						"/>
					</g>
				</g>
				
					<rect id="connector14pin" x="73.5" y="11.8" transform="matrix(-0.6323 0.7747 -0.7747 -0.6323 130.7346 -37.4211)" class="st24" width="1.4" height="1"/>
				<g transform="matrix(13.9027, 0, 0, 13.9177, 0.124623, -0.000673296)">
					<g>
						<polygon id="polygon3225-89_14_" class="st25" points="5.3,1 5.3,0.9 5.3,0.8 5.3,0.8 						"/>
					</g>
				</g>
				<g transform="matrix(13.9027, 0, 0, 13.9177, 0.124623, -0.000673296)">
					<g>
						<polygon id="polygon3227-07_14_" class="st26" points="5.4,0.8 5.3,0.8 5.3,0.8 5.4,0.8 						"/>
					</g>
				</g>
				<g transform="matrix(13.9027, 0, 0, 13.9177, 0.124623, -0.000673296)">
					<g>
						<polygon id="polygon3229-8_14_" class="st27" points="5.4,0.9 5.4,0.8 5.4,0.8 5.4,1 						"/>
					</g>
				</g>
				<g transform="matrix(13.9027, 0, 0, 13.9177, 0.124623, -0.000673296)">
					<g>
						<polygon id="polygon1230" class="st28" points="5.3,1 5.3,0.9 5.4,0.9 5.4,1 						"/>
					</g>
				</g>
				<g transform="matrix(13.9027, 0, 0, 13.9177, 0.124623, -0.000673296)">
					<g>
						<polygon id="polygon3153-8_13_" class="st13" points="5.6,0.2 5.6,0.5 5.6,0.7 5.6,1 5.7,1.1 6,1.1 6.1,1 6.1,0.7 6.1,0.5 
							6.1,0.2 6,0.1 5.7,0.1 						"/>
					</g>
				</g>
				<g transform="matrix(13.9027, 0, 0, 13.9177, 0.124623, -0.000673296)">
					<g>
						<polygon id="polygon3159-0_13_" class="st13" points="5.6,0.2 5.6,0.5 5.6,0.7 5.6,1 5.7,1.1 6,1.1 6.1,1 6.1,0.7 6.1,0.5 
							6.1,0.2 6,0.1 5.7,0.1 						"/>
					</g>
				</g>
				
					<rect id="connector17pin" x="80.7" y="4.6" transform="matrix(-0.6348 0.7727 -0.7727 -0.6348 137.1155 -54.5401)" class="st24" width="1.4" height="1"/>
				<g transform="matrix(13.9027, 0, 0, 13.9177, 0.124623, -0.000673296)">
					<g>
						<polygon id="polygon3215-9_13_" class="st25" points="5.8,0.4 5.8,0.4 5.8,0.3 5.8,0.3 						"/>
					</g>
				</g>
				<g transform="matrix(13.9027, 0, 0, 13.9177, 0.124623, -0.000673296)">
					<g>
						<polygon id="polygon3217-7_13_" class="st26" points="5.9,0.3 5.8,0.3 5.8,0.3 5.9,0.3 						"/>
					</g>
				</g>
				<g transform="matrix(13.9027, 0, 0, 13.9177, 0.124623, -0.000673296)">
					<g>
						<polygon id="polygon3219-2_13_" class="st27" points="5.9,0.4 5.9,0.3 5.9,0.3 5.9,0.4 						"/>
					</g>
				</g>
				<g transform="matrix(13.9027, 0, 0, 13.9177, 0.124623, -0.000673296)">
					<g>
						<polygon id="polygon1232" class="st28" points="5.9,0.4 5.9,0.4 5.8,0.4 5.8,0.4 						"/>
					</g>
				</g>
				
					<rect id="connector16pin" x="80.7" y="11.8" transform="matrix(-0.6364 0.7714 -0.7714 -0.6364 142.7789 -42.6755)" class="st24" width="1.4" height="1"/>
				<g transform="matrix(13.9027, 0, 0, 13.9177, 0.124623, -0.000673296)">
					<g>
						<polygon id="polygon3225-89_13_" class="st25" points="5.8,1 5.8,0.9 5.8,0.8 5.8,0.8 						"/>
					</g>
				</g>
				<g transform="matrix(13.9027, 0, 0, 13.9177, 0.124623, -0.000673296)">
					<g>
						<polygon id="polygon3227-07_13_" class="st26" points="5.9,0.8 5.8,0.8 5.8,0.8 5.9,0.8 						"/>
					</g>
				</g>
				<g transform="matrix(13.9027, 0, 0, 13.9177, 0.124623, -0.000673296)">
					<g>
						<polygon id="polygon3229-8_13_" class="st27" points="5.9,0.9 5.9,0.8 5.9,0.8 5.9,1 						"/>
					</g>
				</g>
				<g transform="matrix(13.9027, 0, 0, 13.9177, 0.124623, -0.000673296)">
					<g>
						<polygon id="polygon1234" class="st28" points="5.8,1 5.8,0.9 5.9,0.9 5.9,1 						"/>
					</g>
				</g>
				<g transform="matrix(13.9027, 0, 0, 13.9177, 0.124623, -0.000673296)">
					<g>
						<polygon id="polygon3153-8_12_" class="st13" points="6.1,0.2 6.1,0.5 6.1,0.7 6.1,1 6.2,1.1 6.5,1.1 6.6,1 6.6,0.7 6.6,0.5 
							6.6,0.2 6.5,0.1 6.2,0.1 						"/>
					</g>
				</g>
				<g transform="matrix(13.9027, 0, 0, 13.9177, 0.124623, -0.000673296)">
					<g>
						<polygon id="polygon3159-0_12_" class="st13" points="6.1,0.2 6.1,0.5 6.1,0.7 6.1,1 6.2,1.1 6.5,1.1 6.6,1 6.6,0.7 6.6,0.5 
							6.6,0.2 6.5,0.1 6.2,0.1 						"/>
					</g>
				</g>
				
					<rect id="connector19pin" x="87.9" y="4.7" transform="matrix(-0.6388 0.7693 -0.7693 -0.6388 149.2304 -59.7838)" class="st24" width="1.4" height="1"/>
				<g transform="matrix(13.9027, 0, 0, 13.9177, 0.124623, -0.000673296)">
					<g>
						<polygon id="polygon3215-9_12_" class="st25" points="6.3,0.4 6.3,0.4 6.3,0.3 6.3,0.3 						"/>
					</g>
				</g>
				<g transform="matrix(13.9027, 0, 0, 13.9177, 0.124623, -0.000673296)">
					<g>
						<polygon id="polygon3217-7_12_" class="st26" points="6.4,0.3 6.3,0.3 6.3,0.3 6.5,0.3 						"/>
					</g>
				</g>
				<g transform="matrix(13.9027, 0, 0, 13.9177, 0.124623, -0.000673296)">
					<g>
						<polygon id="polygon3219-2_12_" class="st27" points="6.4,0.4 6.4,0.3 6.5,0.3 6.5,0.4 						"/>
					</g>
				</g>
				<g transform="matrix(13.9027, 0, 0, 13.9177, 0.124623, -0.000673296)">
					<g>
						<polygon id="polygon1236" class="st28" points="6.4,0.4 6.5,0.4 6.3,0.4 6.3,0.4 						"/>
					</g>
				</g>
				
					<rect id="connector18pin" x="87.9" y="11.8" transform="matrix(-0.6405 0.768 -0.768 -0.6405 154.8808 -47.8792)" class="st24" width="1.4" height="1"/>
				<g transform="matrix(13.9027, 0, 0, 13.9177, 0.124623, -0.000673296)">
					<g>
						<polygon id="polygon3225-89_12_" class="st25" points="6.3,1 6.3,0.9 6.3,0.8 6.3,0.8 						"/>
					</g>
				</g>
				<g transform="matrix(13.9027, 0, 0, 13.9177, 0.124623, -0.000673296)">
					<g>
						<polygon id="polygon3227-07_12_" class="st26" points="6.4,0.8 6.3,0.8 6.3,0.8 6.5,0.8 						"/>
					</g>
				</g>
				<g transform="matrix(13.9027, 0, 0, 13.9177, 0.124623, -0.000673296)">
					<g>
						<polygon id="polygon3229-8_12_" class="st27" points="6.4,0.9 6.4,0.8 6.5,0.8 6.5,1 						"/>
					</g>
				</g>
				<g transform="matrix(13.9027, 0, 0, 13.9177, 0.124623, -0.000673296)">
					<g>
						<polygon id="polygon1238" class="st28" points="6.3,1 6.3,0.9 6.4,0.9 6.5,1 						"/>
					</g>
				</g>
				<g transform="matrix(13.9027, 0, 0, 13.9177, 0.124623, -0.000673296)">
					<g>
						<polygon id="polygon3153-8_11_" class="st13" points="6.6,0.2 6.6,0.5 6.6,0.7 6.6,1 6.7,1.1 7,1.1 7.2,1 7.2,0.7 7.2,0.5 
							7.2,0.2 7,0.1 6.7,0.1 						"/>
					</g>
				</g>
				<g transform="matrix(13.9027, 0, 0, 13.9177, 0.124623, -0.000673296)">
					<g>
						<polygon id="polygon3159-0_11_" class="st13" points="6.6,0.2 6.6,0.5 6.6,0.7 6.6,1 6.7,1.1 7,1.1 7.2,1 7.2,0.7 7.2,0.5 
							7.2,0.2 7,0.1 6.7,0.1 						"/>
					</g>
				</g>
				
					<rect id="connector21pin" x="95.1" y="4.7" transform="matrix(-0.6429 0.7659 -0.7659 -0.6429 161.4029 -64.9762)" class="st24" width="1.5" height="1"/>
				<g transform="matrix(13.9027, 0, 0, 13.9177, 0.124623, -0.000673296)">
					<g>
						<polygon id="polygon3215-9_11_" class="st25" points="6.8,0.4 6.8,0.4 6.8,0.3 6.8,0.3 						"/>
					</g>
				</g>
				<g transform="matrix(13.9027, 0, 0, 13.9177, 0.124623, -0.000673296)">
					<g>
						<polygon id="polygon3217-7_11_" class="st26" points="6.9,0.3 6.8,0.3 6.8,0.3 7,0.3 						"/>
					</g>
				</g>
				<g transform="matrix(13.9027, 0, 0, 13.9177, 0.124623, -0.000673296)">
					<g>
						<polygon id="polygon3219-2_11_" class="st27" points="6.9,0.4 6.9,0.3 7,0.3 7,0.4 						"/>
					</g>
				</g>
				<g transform="matrix(13.9027, 0, 0, 13.9177, 0.124623, -0.000673296)">
					<g>
						<polygon id="polygon1240" class="st28" points="6.9,0.4 7,0.4 6.8,0.4 6.8,0.4 						"/>
					</g>
				</g>
				
					<rect id="connector20pin" x="95.1" y="11.8" transform="matrix(-0.6445 0.7646 -0.7646 -0.6445 167.0401 -53.0316)" class="st24" width="1.5" height="1"/>
				<g transform="matrix(13.9027, 0, 0, 13.9177, 0.124623, -0.000673296)">
					<g>
						<polygon id="polygon3225-89_11_" class="st25" points="6.8,1 6.8,0.9 6.8,0.8 6.8,0.8 						"/>
					</g>
				</g>
				<g transform="matrix(13.9027, 0, 0, 13.9177, 0.124623, -0.000673296)">
					<g>
						<polygon id="polygon3227-07_11_" class="st26" points="6.9,0.8 6.8,0.8 6.8,0.8 7,0.8 						"/>
					</g>
				</g>
				<g transform="matrix(13.9027, 0, 0, 13.9177, 0.124623, -0.000673296)">
					<g>
						<polygon id="polygon3229-8_11_" class="st27" points="6.9,0.9 6.9,0.8 7,0.8 7,1 						"/>
					</g>
				</g>
				<g transform="matrix(13.9027, 0, 0, 13.9177, 0.124623, -0.000673296)">
					<g>
						<polygon id="polygon1242" class="st28" points="6.8,1 6.8,0.9 6.9,0.9 7,1 						"/>
					</g>
				</g>
				<g transform="matrix(13.9027, 0, 0, 13.9177, 0.124623, -0.000673296)">
					<g>
						<polygon id="polygon3153-8_10_" class="st13" points="7.2,0.2 7.2,0.5 7.2,0.7 7.2,1 7.3,1.1 7.6,1.1 7.7,1 7.7,0.7 7.7,0.5 
							7.7,0.2 7.6,0.1 7.3,0.1 						"/>
					</g>
				</g>
				<g transform="matrix(13.9027, 0, 0, 13.9177, 0.124623, -0.000673296)">
					<g>
						<polygon id="polygon3159-0_10_" class="st13" points="7.2,0.2 7.2,0.5 7.2,0.7 7.2,1 7.3,1.1 7.6,1.1 7.7,1 7.7,0.7 7.7,0.5 
							7.7,0.2 7.6,0.1 7.3,0.1 						"/>
					</g>
				</g>
				
					<rect id="connector23pin" x="102.3" y="4.7" transform="matrix(-0.647 0.7625 -0.7625 -0.647 173.6329 -70.1169)" class="st24" width="1.5" height="1"/>
				<g transform="matrix(13.9027, 0, 0, 13.9177, 0.124623, -0.000673296)">
					<g>
						<polygon id="polygon3215-9_10_" class="st25" points="7.3,0.4 7.4,0.4 7.4,0.3 7.3,0.3 						"/>
					</g>
				</g>
				<g transform="matrix(13.9027, 0, 0, 13.9177, 0.124623, -0.000673296)">
					<g>
						<polygon id="polygon3217-7_10_" class="st26" points="7.5,0.3 7.4,0.3 7.3,0.3 7.5,0.3 						"/>
					</g>
				</g>
				<g transform="matrix(13.9027, 0, 0, 13.9177, 0.124623, -0.000673296)">
					<g>
						<polygon id="polygon3219-2_10_" class="st27" points="7.5,0.4 7.5,0.3 7.5,0.3 7.5,0.4 						"/>
					</g>
				</g>
				<g transform="matrix(13.9027, 0, 0, 13.9177, 0.124623, -0.000673296)">
					<g>
						<polygon id="polygon1244" class="st28" points="7.5,0.4 7.5,0.4 7.3,0.4 7.4,0.4 						"/>
					</g>
				</g>
				
					<rect id="connector22pin" x="102.3" y="11.8" transform="matrix(-0.6486 0.7611 -0.7611 -0.6486 179.2566 -58.1322)" class="st24" width="1.5" height="1"/>
				<g transform="matrix(13.9027, 0, 0, 13.9177, 0.124623, -0.000673296)">
					<g>
						<polygon id="polygon3225-89_10_" class="st25" points="7.3,1 7.4,0.9 7.4,0.8 7.3,0.8 						"/>
					</g>
				</g>
				<g transform="matrix(13.9027, 0, 0, 13.9177, 0.124623, -0.000673296)">
					<g>
						<polygon id="polygon3227-07_10_" class="st26" points="7.5,0.8 7.4,0.8 7.3,0.8 7.5,0.8 						"/>
					</g>
				</g>
				<g transform="matrix(13.9027, 0, 0, 13.9177, 0.124623, -0.000673296)">
					<g>
						<polygon id="polygon3229-8_10_" class="st27" points="7.5,0.9 7.5,0.8 7.5,0.8 7.5,1 						"/>
					</g>
				</g>
				<g transform="matrix(13.9027, 0, 0, 13.9177, 0.124623, -0.000673296)">
					<g>
						<polygon id="polygon1246" class="st28" points="7.3,1 7.4,0.9 7.5,0.9 7.5,1 						"/>
					</g>
				</g>
				<g transform="matrix(13.9027, 0, 0, 13.9177, 0.124623, -0.000673296)">
					<g>
						<polygon id="polygon3153-8_9_" class="st13" points="7.7,0.2 7.7,0.5 7.7,0.7 7.7,1 7.8,1.1 8.1,1.1 8.2,1 8.2,0.7 8.2,0.5 
							8.2,0.2 8.1,0.1 7.8,0.1 						"/>
					</g>
				</g>
				<g transform="matrix(13.9027, 0, 0, 13.9177, 0.0845975, -0.441425)">
					<g>
						<polygon id="polygon3159-0_9_" class="st13" points="7.7,0.5 7.7,0.7 7.7,1 7.8,1.1 8.1,1.1 8.2,1 8.2,0.7 8.2,0.5 8.2,0.2 
							8.1,0.1 7.8,0.1 7.7,0.2 						"/>
					</g>
				</g>
				
					<rect id="connector25pin" x="109.5" y="4.7" transform="matrix(-0.651 0.7591 -0.7591 -0.651 185.9199 -75.2052)" class="st24" width="1.5" height="1"/>
				<g transform="matrix(13.9027, 0, 0, 13.9177, 0.124623, -0.000673296)">
					<g>
						<polygon id="polygon3215-9_9_" class="st25" points="7.8,0.4 7.9,0.4 7.9,0.3 7.8,0.3 						"/>
					</g>
				</g>
				<g transform="matrix(13.9027, 0, 0, 13.9177, 0.124623, -0.000673296)">
					<g>
						<polygon id="polygon3217-7_9_" class="st26" points="8,0.3 7.9,0.3 7.8,0.3 8,0.3 						"/>
					</g>
				</g>
				<g transform="matrix(13.9027, 0, 0, 13.9177, 0.124623, -0.000673296)">
					<g>
						<polygon id="polygon3219-2_9_" class="st27" points="8,0.4 8,0.3 8,0.3 8,0.4 						"/>
					</g>
				</g>
				<g transform="matrix(13.9027, 0, 0, 13.9177, 0.124623, -0.000673296)">
					<g>
						<polygon id="polygon1248" class="st28" points="8,0.4 8,0.4 7.8,0.4 7.9,0.4 						"/>
					</g>
				</g>
				
					<rect id="connector24pin" x="109.5" y="11.8" transform="matrix(-0.6526 0.7577 -0.7577 -0.6526 191.5298 -63.1803)" class="st24" width="1.5" height="0.9"/>
				<g transform="matrix(13.9027, 0, 0, 13.9177, 0.124623, -0.000673296)">
					<g>
						<polygon id="polygon3225-89_9_" class="st25" points="7.8,1 7.9,0.9 7.9,0.8 7.8,0.8 						"/>
					</g>
				</g>
				<g transform="matrix(13.9027, 0, 0, 13.9177, 0.124623, -0.000673296)">
					<g>
						<polygon id="polygon3227-07_9_" class="st26" points="8,0.8 7.9,0.8 7.8,0.8 8,0.8 						"/>
					</g>
				</g>
				<g transform="matrix(13.9027, 0, 0, 13.9177, 0.124623, -0.000673296)">
					<g>
						<polygon id="polygon3229-8_9_" class="st27" points="8,0.9 8,0.8 8,0.8 8,1 						"/>
					</g>
				</g>
				<g transform="matrix(13.9027, 0, 0, 13.9177, 0.124623, -0.000673296)">
					<g>
						<polygon id="polygon1250" class="st28" points="7.8,1 7.9,0.9 8,0.9 8,1 						"/>
					</g>
				</g>
				<g transform="matrix(13.9027, 0, 0, 13.9177, 0.124623, -0.000673296)">
					<g>
						<polygon id="polygon3153-8_8_" class="st13" points="8.2,0.2 8.2,0.5 8.2,0.7 8.2,1 8.3,1.1 8.6,1.1 8.7,1 8.7,0.7 8.7,0.5 
							8.7,0.2 8.6,0.1 8.3,0.1 						"/>
					</g>
				</g>
				<g transform="matrix(13.9027, 0, 0, 13.9177, 0.124623, -0.000673296)">
					<g>
						<polygon id="polygon3159-0_8_" class="st13" points="8.2,0.2 8.2,0.5 8.2,0.7 8.2,1 8.3,1.1 8.6,1.1 8.7,1 8.7,0.7 8.7,0.5 
							8.7,0.2 8.6,0.1 8.3,0.1 						"/>
					</g>
				</g>
				
					<rect id="connector27pin" x="116.7" y="4.7" transform="matrix(-0.6551 0.7556 -0.7556 -0.6551 198.2638 -80.2406)" class="st24" width="1.5" height="0.9"/>
				<g transform="matrix(13.9027, 0, 0, 13.9177, 0.124623, -0.000673296)">
					<g>
						<polygon id="polygon3215-9_8_" class="st25" points="8.4,0.4 8.4,0.4 8.4,0.3 8.4,0.3 						"/>
					</g>
				</g>
				<g transform="matrix(13.9027, 0, 0, 13.9177, 0.124623, -0.000673296)">
					<g>
						<polygon id="polygon3217-7_8_" class="st26" points="8.5,0.3 8.4,0.3 8.4,0.3 8.5,0.3 						"/>
					</g>
				</g>
				<g transform="matrix(13.9027, 0, 0, 13.9177, 0.124623, -0.000673296)">
					<g>
						<polygon id="polygon3219-2_8_" class="st27" points="8.5,0.4 8.5,0.3 8.5,0.3 8.5,0.4 						"/>
					</g>
				</g>
				<g transform="matrix(13.9027, 0, 0, 13.9177, 0.124623, -0.000673296)">
					<g>
						<polygon id="polygon1252" class="st28" points="8.5,0.4 8.5,0.4 8.4,0.4 8.4,0.4 						"/>
					</g>
				</g>
				
					<rect id="connector26pin" x="116.7" y="11.8" transform="matrix(-0.6567 0.7542 -0.7542 -0.6567 203.8596 -68.1755)" class="st24" width="1.5" height="0.9"/>
				<g transform="matrix(13.9027, 0, 0, 13.9177, 0.124623, -0.000673296)">
					<g>
						<polygon id="polygon3225-89_8_" class="st25" points="8.4,1 8.4,0.9 8.4,0.8 8.4,0.8 						"/>
					</g>
				</g>
				<g transform="matrix(13.9027, 0, 0, 13.9177, 0.124623, -0.000673296)">
					<g>
						<polygon id="polygon3227-07_8_" class="st26" points="8.5,0.8 8.4,0.8 8.4,0.8 8.5,0.8 						"/>
					</g>
				</g>
				<g transform="matrix(13.9027, 0, 0, 13.9177, 0.124623, -0.000673296)">
					<g>
						<polygon id="polygon3229-8_8_" class="st27" points="8.5,0.9 8.5,0.8 8.5,0.8 8.5,1 						"/>
					</g>
				</g>
				<g transform="matrix(13.9027, 0, 0, 13.9177, 0.124623, -0.000673296)">
					<g>
						<polygon id="polygon1254" class="st28" points="8.4,1 8.4,0.9 8.5,0.9 8.5,1 						"/>
					</g>
				</g>
				<g transform="matrix(13.9027, 0, 0, 13.9177, 0.124623, -0.000673296)">
					<g>
						<polygon id="polygon3153-8_7_" class="st13" points="8.7,0.2 8.7,0.5 8.7,0.7 8.7,1 8.8,1.1 9.1,1.1 9.2,1 9.2,0.7 9.2,0.5 
							9.2,0.2 9.1,0.1 8.8,0.1 						"/>
					</g>
				</g>
				<g transform="matrix(13.9027, 0, 0, 13.9177, 0.124623, -0.000673296)">
					<g>
						<polygon id="polygon3159-0_7_" class="st13" points="8.7,0.2 8.7,0.5 8.7,0.7 8.7,1 8.8,1.1 9.1,1.1 9.2,1 9.2,0.7 9.2,0.5 
							9.2,0.2 9.1,0.1 8.8,0.1 						"/>
					</g>
				</g>
				
					<rect id="connector29pin" x="123.9" y="4.7" transform="matrix(-0.6591 0.7521 -0.7521 -0.6591 210.6649 -85.2229)" class="st24" width="1.5" height="0.9"/>
				<g transform="matrix(13.9027, 0, 0, 13.9177, 0.124623, -0.000673296)">
					<g>
						<polygon id="polygon3215-9_7_" class="st25" points="8.9,0.4 8.9,0.4 8.9,0.3 8.9,0.3 						"/>
					</g>
				</g>
				<g transform="matrix(10.9246, 0, 0, 10.9364, 26.8256, 0.848042)">
					<g>
						<polygon id="polygon3217-7_7_" class="st26" points="8.9,0.3 8.9,0.3 9,0.3 9,0.3 						"/>
					</g>
				</g>
				<g transform="matrix(13.9027, 0, 0, 13.9177, 0.124623, -0.000673296)">
					<g>
						<polygon id="polygon3219-2_7_" class="st27" points="9,0.4 9,0.3 9,0.3 9,0.4 						"/>
					</g>
				</g>
				<g transform="matrix(13.9027, 0, 0, 13.9177, 0.124623, -0.000673296)">
					<g>
						<polygon id="polygon1256" class="st28" points="9,0.4 9,0.4 8.9,0.4 8.9,0.4 						"/>
					</g>
				</g>
				
					<rect id="connector28pin" x="123.9" y="11.8" transform="matrix(-0.6607 0.7507 -0.7507 -0.6607 216.2465 -73.1176)" class="st24" width="1.5" height="0.9"/>
				<g transform="matrix(13.9027, 0, 0, 13.9177, 0.124623, -0.000673296)">
					<g>
						<polygon id="polygon3225-89_7_" class="st25" points="8.9,1 8.9,0.9 8.9,0.8 8.9,0.8 						"/>
					</g>
				</g>
				<g transform="matrix(13.9027, 0, 0, 13.9177, 0.124623, -0.000673296)">
					<g>
						<polygon id="polygon3227-07_7_" class="st26" points="9,0.8 8.9,0.8 8.9,0.8 9,0.8 						"/>
					</g>
				</g>
				<g transform="matrix(13.9027, 0, 0, 13.9177, 0.124623, -0.000673296)">
					<g>
						<polygon id="polygon3229-8_7_" class="st27" points="9,0.9 9,0.8 9,0.8 9,1 						"/>
					</g>
				</g>
				<g transform="matrix(13.9027, 0, 0, 13.9177, 0.124623, -0.000673296)">
					<g>
						<polygon id="polygon1258" class="st28" points="8.9,1 8.9,0.9 9,0.9 9,1 						"/>
					</g>
				</g>
				<g transform="matrix(13.9027, 0, 0, 13.9177, 0.124623, -0.000673296)">
					<g>
						<polygon id="polygon3153-8_6_" class="st13" points="9.2,0.2 9.2,0.5 9.2,0.7 9.2,1 9.3,1.1 9.6,1.1 9.7,1 9.7,0.7 9.7,0.5 
							9.7,0.2 9.6,0.1 9.3,0.1 						"/>
					</g>
				</g>
				<g transform="matrix(13.9027, 0, 0, 13.9177, 0.124623, -0.000673296)">
					<g>
						<polygon id="polygon3159-0_6_" class="st13" points="9.2,0.2 9.2,0.5 9.2,0.7 9.2,1 9.3,1.1 9.6,1.1 9.7,1 9.7,0.7 9.7,0.5 
							9.7,0.2 9.6,0.1 9.3,0.1 						"/>
					</g>
				</g>
				
					<rect id="connector31pin" x="131.1" y="4.7" transform="matrix(-0.6631 0.7485 -0.7485 -0.6631 223.1206 -90.1505)" class="st24" width="1.5" height="0.9"/>
				<g transform="matrix(13.9027, 0, 0, 13.9177, 0.124623, -0.000673296)">
					<g>
						<polygon id="polygon3215-9_6_" class="st25" points="9.4,0.4 9.4,0.4 9.4,0.3 9.4,0.3 						"/>
					</g>
				</g>
				<g transform="matrix(13.9027, 0, 0, 13.9177, 0.124623, -0.000673296)">
					<g>
						<polygon id="polygon3217-7_6_" class="st26" points="9.5,0.3 9.4,0.3 9.4,0.3 9.6,0.3 						"/>
					</g>
				</g>
				<g transform="matrix(13.9027, 0, 0, 13.9177, 0.124623, -0.000673296)">
					<g>
						<polygon id="polygon3219-2_6_" class="st27" points="9.5,0.4 9.5,0.3 9.6,0.3 9.6,0.4 						"/>
					</g>
				</g>
				<g transform="matrix(13.9027, 0, 0, 13.9177, 0.124623, -0.000673296)">
					<g>
						<polygon id="polygon1260" class="st28" points="9.5,0.4 9.6,0.4 9.4,0.4 9.4,0.4 						"/>
					</g>
				</g>
				
					<rect id="connector30pin" x="131.1" y="11.8" transform="matrix(-0.6647 0.7471 -0.7471 -0.6647 228.6874 -78.0049)" class="st24" width="1.5" height="0.9"/>
				<g transform="matrix(13.9027, 0, 0, 13.9177, 0.124623, -0.000673296)">
					<g>
						<polygon id="polygon3225-89_6_" class="st25" points="9.4,1 9.4,0.9 9.4,0.8 9.4,0.8 						"/>
					</g>
				</g>
				<g transform="matrix(13.9027, 0, 0, 13.9177, 0.124623, -0.000673296)">
					<g>
						<polygon id="polygon3227-07_6_" class="st26" points="9.5,0.8 9.4,0.8 9.4,0.8 9.6,0.8 						"/>
					</g>
				</g>
				<g transform="matrix(13.9027, 0, 0, 13.9177, 0.124623, -0.000673296)">
					<g>
						<polygon id="polygon3229-8_6_" class="st27" points="9.5,0.9 9.5,0.8 9.6,0.8 9.6,1 						"/>
					</g>
				</g>
				<g transform="matrix(13.9027, 0, 0, 13.9177, 0.124623, -0.000673296)">
					<g>
						<polygon id="polygon1262" class="st28" points="9.4,1 9.4,0.9 9.5,0.9 9.6,1 						"/>
					</g>
				</g>
				<g transform="matrix(13.9027, 0, 0, 13.9177, 0.124623, -0.000673296)">
					<g>
						<polygon id="polygon3153-8_5_" class="st13" points="9.7,0.2 9.7,0.5 9.7,0.7 9.7,1 9.9,1.1 10.1,1.1 10.3,1 10.3,0.7 
							10.3,0.5 10.3,0.2 10.1,0.1 9.9,0.1 						"/>
					</g>
				</g>
				<g transform="matrix(13.9027, 0, 0, 13.9177, 0.124623, -0.000673296)">
					<g>
						<polygon id="polygon3159-0_5_" class="st13" points="9.7,0.2 9.7,0.5 9.7,0.7 9.7,1 9.9,1.1 10.1,1.1 10.3,1 10.3,0.7 
							10.3,0.5 10.3,0.2 10.1,0.1 9.9,0.1 						"/>
					</g>
				</g>
				
					<rect id="connector33pin" x="138.3" y="4.7" transform="matrix(-0.6671 0.745 -0.745 -0.6671 235.6336 -95.0244)" class="st24" width="1.5" height="0.9"/>
				<g transform="matrix(13.9027, 0, 0, 13.9177, 0.124623, -0.000673296)">
					<g>
						<polygon id="polygon3215-9_5_" class="st25" points="9.9,0.4 10,0.4 10,0.3 9.9,0.3 						"/>
					</g>
				</g>
				<g transform="matrix(13.9027, 0, 0, 13.9177, 0.124623, -0.000673296)">
					<g>
						<polygon id="polygon3217-7_5_" class="st26" points="10,0.3 10,0.3 9.9,0.3 10.1,0.3 						"/>
					</g>
				</g>
				<g transform="matrix(13.9027, 0, 0, 13.9177, 0.124623, -0.000673296)">
					<g>
						<polygon id="polygon3219-2_5_" class="st27" points="10,0.4 10,0.3 10.1,0.3 10.1,0.4 						"/>
					</g>
				</g>
				<g transform="matrix(13.9027, 0, 0, 13.9177, 0.124623, -0.000673296)">
					<g>
						<polygon id="polygon1264" class="st28" points="10,0.4 10.1,0.4 9.9,0.4 10,0.4 						"/>
					</g>
				</g>
				
					<rect id="connector32pin" x="138.3" y="11.9" transform="matrix(-0.6687 0.7435 -0.7435 -0.6687 241.1855 -82.8385)" class="st24" width="1.5" height="0.9"/>
				<g transform="matrix(13.9027, 0, 0, 13.9177, 0.124623, -0.000673296)">
					<g>
						<polygon id="polygon3225-89_5_" class="st25" points="9.9,1 10,0.9 10,0.8 9.9,0.8 						"/>
					</g>
				</g>
				<g transform="matrix(13.9027, 0, 0, 13.9177, 0.124623, -0.000673296)">
					<g>
						<polygon id="polygon3227-07_5_" class="st26" points="10,0.8 10,0.8 9.9,0.8 10.1,0.8 						"/>
					</g>
				</g>
				<g transform="matrix(13.9027, 0, 0, 13.9177, 0.124623, -0.000673296)">
					<g>
						<polygon id="polygon3229-8_5_" class="st27" points="10,0.9 10,0.8 10.1,0.8 10.1,1 						"/>
					</g>
				</g>
				<g transform="matrix(13.9027, 0, 0, 13.9177, 0.124623, -0.000673296)">
					<g>
						<polygon id="polygon1266" class="st28" points="9.9,1 10,0.9 10,0.9 10.1,1 						"/>
					</g>
				</g>
				<g transform="matrix(13.9027, 0, 0, 13.9177, 0.124623, -0.000673296)">
					<g>
						<polygon id="polygon3153-8_4_" class="st13" points="10.3,0.2 10.3,0.5 10.3,0.7 10.3,1 10.4,1.1 10.7,1.1 10.8,1 10.8,0.7 
							10.8,0.5 10.8,0.2 10.7,0.1 10.4,0.1 						"/>
					</g>
				</g>
				<g transform="matrix(13.9027, 0, 0, 13.9177, 0.124623, -0.000673296)">
					<g>
						<polygon id="polygon3159-0_4_" class="st13" points="10.3,0.2 10.3,0.5 10.3,0.7 10.3,1 10.4,1.1 10.7,1.1 10.8,1 10.8,0.7 
							10.8,0.5 10.8,0.2 10.7,0.1 10.4,0.1 						"/>
					</g>
				</g>
				
					<rect id="connector35pin" x="145.5" y="4.7" transform="matrix(-0.6711 0.7414 -0.7414 -0.6711 248.2011 -99.843)" class="st24" width="1.5" height="0.9"/>
				<g transform="matrix(13.9027, 0, 0, 13.9177, 0.124623, -0.000673296)">
					<g>
						<polygon id="polygon3215-9_4_" class="st25" points="10.4,0.4 10.5,0.4 10.5,0.3 10.4,0.3 						"/>
					</g>
				</g>
				<g transform="matrix(13.9027, 0, 0, 13.9177, 0.124623, -0.000673296)">
					<g>
						<polygon id="polygon3217-7_4_" class="st26" points="10.6,0.3 10.5,0.3 10.4,0.3 10.6,0.3 						"/>
					</g>
				</g>
				<g transform="matrix(13.9027, 0, 0, 13.9177, 0.124623, -0.000673296)">
					<g>
						<polygon id="polygon3219-2_4_" class="st27" points="10.6,0.4 10.6,0.3 10.6,0.3 10.6,0.4 						"/>
					</g>
				</g>
				<g transform="matrix(13.9027, 0, 0, 13.9177, 0.124623, -0.000673296)">
					<g>
						<polygon id="polygon1268" class="st28" points="10.6,0.4 10.6,0.4 10.4,0.4 10.5,0.4 						"/>
					</g>
				</g>
				
					<rect id="connector34pin" x="145.5" y="11.9" transform="matrix(-0.6727 0.7399 -0.7399 -0.6727 253.7378 -87.6168)" class="st24" width="1.5" height="0.9"/>
				<g transform="matrix(13.9027, 0, 0, 13.9177, 0.124623, -0.000673296)">
					<g>
						<polygon id="polygon3225-89_4_" class="st25" points="10.4,1 10.5,0.9 10.5,0.8 10.4,0.8 						"/>
					</g>
				</g>
				<g transform="matrix(13.9027, 0, 0, 13.9177, 0.124623, -0.000673296)">
					<g>
						<polygon id="polygon3227-07_4_" class="st26" points="10.6,0.8 10.5,0.8 10.4,0.8 10.6,0.8 						"/>
					</g>
				</g>
				<g transform="matrix(13.9027, 0, 0, 13.9177, 0.124623, -0.000673296)">
					<g>
						<polygon id="polygon3229-8_4_" class="st27" points="10.6,0.9 10.6,0.8 10.6,0.8 10.6,1 						"/>
					</g>
				</g>
				<g transform="matrix(13.9027, 0, 0, 13.9177, 0.124623, -0.000673296)">
					<g>
						<polygon id="polygon1270" class="st28" points="10.4,1 10.5,0.9 10.6,0.9 10.6,1 						"/>
					</g>
				</g>
				<g transform="matrix(13.9027, 0, 0, 13.9177, 0.124623, -0.000673296)">
					<g>
						<polygon id="polygon3153-8_3_" class="st13" points="10.8,0.2 10.8,0.5 10.8,0.7 10.8,1 10.9,1.1 11.2,1.1 11.3,1 11.3,0.7 
							11.3,0.5 11.3,0.2 11.2,0.1 10.9,0.1 						"/>
					</g>
				</g>
				<g transform="matrix(13.9027, 0, 0, 13.9177, 0.124623, -0.000673296)">
					<g>
						<polygon id="polygon3159-0_3_" class="st13" points="10.8,0.2 10.8,0.5 10.8,0.7 10.8,1 10.9,1.1 11.2,1.1 11.3,1 11.3,0.7 
							11.3,0.5 11.3,0.2 11.2,0.1 10.9,0.1 						"/>
					</g>
				</g>
				
					<rect id="connector37pin" x="152.7" y="4.7" transform="matrix(-0.6751 0.7378 -0.7378 -0.6751 260.8228 -104.6057)" class="st24" width="1.5" height="0.9"/>
				<g transform="matrix(13.9027, 0, 0, 13.9177, 0.124623, -0.000673296)">
					<g>
						<polygon id="polygon3215-9_3_" class="st25" points="11,0.4 11,0.4 11,0.3 11,0.3 						"/>
					</g>
				</g>
				<g transform="matrix(13.9027, 0, 0, 13.9177, 0.124623, -0.000673296)">
					<g>
						<polygon id="polygon3217-7_3_" class="st26" points="11.1,0.3 11,0.3 11,0.3 11.1,0.3 						"/>
					</g>
				</g>
				<g transform="matrix(13.9027, 0, 0, 13.9177, 0.124623, -0.000673296)">
					<g>
						<polygon id="polygon3219-2_3_" class="st27" points="11.1,0.4 11.1,0.3 11.1,0.3 11.1,0.4 						"/>
					</g>
				</g>
				<g transform="matrix(13.9027, 0, 0, 13.9177, 0.124623, -0.000673296)">
					<g>
						<polygon id="polygon1272" class="st28" points="11.1,0.4 11.1,0.4 11,0.4 11,0.4 						"/>
					</g>
				</g>
				
					<rect id="connector36pin" x="152.8" y="11.9" transform="matrix(-0.6766 0.7363 -0.7363 -0.6766 266.6054 -92.454)" class="st24" width="1.5" height="0.9"/>
				<g transform="matrix(13.9027, 0, 0, 13.9177, 0.124623, -0.000673296)">
					<g>
						<polygon id="polygon3225-89_3_" class="st25" points="11,1 11,0.9 11,0.8 11,0.8 						"/>
					</g>
				</g>
				<g transform="matrix(13.9027, 0, 0, 13.9177, 0.124623, -0.000673296)">
					<g>
						<polygon id="polygon3227-07_3_" class="st26" points="11.1,0.8 11,0.8 11,0.8 11.1,0.8 						"/>
					</g>
				</g>
				<g transform="matrix(13.9027, 0, 0, 13.9177, 0.124623, -0.000673296)">
					<g>
						<polygon id="polygon3229-8_3_" class="st27" points="11.1,0.9 11.1,0.8 11.1,0.8 11.1,1 						"/>
					</g>
				</g>
				<g transform="matrix(13.9027, 0, 0, 13.9177, 0.124623, -0.000673296)">
					<g>
						<polygon id="polygon1274" class="st28" points="11,1 11,0.9 11.1,0.9 11.1,1 						"/>
					</g>
				</g>
				<g transform="matrix(13.9027, 0, 0, 13.9177, 0.124623, -0.000673296)">
					<g>
						<polygon id="polygon3153-8_1_" class="st13" points="11.3,0.2 11.3,0.5 11.3,0.7 11.3,1 11.4,1.1 11.7,1.1 11.8,1 11.8,0.7 
							11.8,0.5 11.8,0.2 11.7,0.1 11.4,0.1 						"/>
					</g>
				</g>
				<g transform="matrix(13.9027, 0, 0, 13.9177, 0.124623, -0.000673296)">
					<g>
						<polygon id="polygon3159-0_1_" class="st13" points="11.3,0.2 11.3,0.5 11.3,0.7 11.3,1 11.4,1.1 11.7,1.1 11.8,1 11.8,0.7 
							11.8,0.5 11.8,0.2 11.7,0.1 11.4,0.1 						"/>
					</g>
				</g>
				
					<rect id="connector39pin" x="159.9" y="4.7" transform="matrix(-0.679 0.7341 -0.7341 -0.679 273.4814 -109.3549)" class="st24" width="1.5" height="0.9"/>
				<g transform="matrix(13.9027, 0, 0, 13.9177, 0.124623, -0.000673296)">
					<g>
						<polygon id="polygon3215-9_1_" class="st25" points="11.5,0.4 11.5,0.4 11.5,0.3 11.5,0.3 						"/>
					</g>
				</g>
				<g transform="matrix(13.9027, 0, 0, 13.9177, 0.124623, -0.000673296)">
					<g>
						<polygon id="polygon3217-7_1_" class="st26" points="11.6,0.3 11.5,0.3 11.5,0.3 11.6,0.3 						"/>
					</g>
				</g>
				<g transform="matrix(13.9027, 0, 0, 13.9177, 0.124623, -0.000673296)">
					<g>
						<polygon id="polygon3219-2_1_" class="st27" points="11.6,0.4 11.6,0.3 11.6,0.3 11.6,0.4 						"/>
					</g>
				</g>
				<g transform="matrix(13.9027, 0, 0, 13.9177, 0.124623, -0.000673296)">
					<g>
						<polygon id="polygon1276" class="st28" points="11.6,0.4 11.6,0.4 11.5,0.4 11.5,0.4 						"/>
					</g>
				</g>
				
					<rect id="connector38pin" x="159.9" y="11.9" transform="matrix(-0.6806 0.7327 -0.7327 -0.6806 279.0204 -96.9706)" class="st24" width="1.5" height="0.9"/>
				<g transform="matrix(13.9027, 0, 0, 13.9177, 0.124623, -0.000673296)">
					<g>
						<polygon id="polygon3225-89_1_" class="st25" points="11.5,1 11.5,0.9 11.5,0.8 11.5,0.8 						"/>
					</g>
				</g>
				<g transform="matrix(13.9027, 0, 0, 13.9177, 0.124623, -0.000673296)">
					<g>
						<polygon id="polygon3227-07_1_" class="st26" points="11.6,0.8 11.5,0.8 11.5,0.8 11.6,0.8 						"/>
					</g>
				</g>
				<g transform="matrix(13.9027, 0, 0, 13.9177, 0.124623, -0.000673296)">
					<g>
						<polygon id="polygon3229-8_1_" class="st27" points="11.6,0.9 11.6,0.8 11.6,0.8 11.6,1 						"/>
					</g>
				</g>
				<g transform="matrix(13.9027, 0, 0, 13.9177, 0.124623, -0.000673296)">
					<g>
						<polygon id="polygon3219-2_20_" class="st28" points="11.5,1 11.5,0.9 11.6,0.9 11.6,1 						"/>
					</g>
				</g>
				<text id="label_3_" transform="matrix(1 0 0 1 63.3551 63.6881)" class="st23 st29 st30">Raspberry Pi Zero V1.2</text>
			</g>
		</g>
	</g>
</g>
<g>
	<g transform="translate(0,96.3778)">
		<g transform="matrix(0,-1,1,0,0,0)">
			<g>
				<g id="icon">
					<path class="st31" d="M0,52.4V5.7C0,2.5,2.5,0,5.7,0h85c3.1,0,5.7,2.5,5.7,5.7l0,0v46.8c0,3.1-2.5,5.7-5.7,5.7l0,0l-85,0
						C2.5,58.1,0,55.6,0,52.4L0,52.4 M2.1,52.4c0,2,1.6,3.5,3.5,3.5s3.5-1.6,3.5-3.5c0,0,0,0,0,0c0-2-1.6-3.5-3.5-3.5
						S2.1,50.5,2.1,52.4C2.1,52.4,2.1,52.4,2.1,52.4z M2.1,5.7c0,2,1.6,3.5,3.5,3.5s3.5-1.6,3.5-3.5c0,0,0,0,0,0
						c0-2-1.6-3.5-3.5-3.5C3.7,2.1,2.1,3.7,2.1,5.7C2.1,5.7,2.1,5.7,2.1,5.7z M87.2,5.7c0,2,1.6,3.5,3.5,3.5c2,0,3.5-1.6,3.5-3.5
						c0,0,0,0,0,0c0-2-1.6-3.5-3.5-3.5C88.8,2.1,87.2,3.7,87.2,5.7C87.2,5.7,87.2,5.7,87.2,5.7z M87.2,52.4c0,2,1.6,3.5,3.5,3.5
						c2,0,3.5-1.6,3.5-3.5c0,0,0,0,0,0c0-2-1.6-3.5-3.5-3.5S87.2,50.5,87.2,52.4C87.2,52.4,87.2,52.4,87.2,52.4z M64.8,51.7
						c0,0.8,0.6,1.4,1.4,1.4s1.4-0.6,1.4-1.4s-0.6-1.4-1.4-1.4S64.8,50.9,64.8,51.7L64.8,51.7z M57.6,51.7c0,0.8,0.6,1.4,1.4,1.4
						s1.4-0.6,1.4-1.4s-0.6-1.4-1.4-1.4S57.6,50.9,57.6,51.7L57.6,51.7z M50.4,51.7c0,0.8,0.6,1.4,1.4,1.4c0.8,0,1.4-0.6,1.4-1.4
						s-0.6-1.4-1.4-1.4S50.4,50.9,50.4,51.7L50.4,51.7z M43.2,51.7c0,0.8,0.6,1.4,1.4,1.4s1.4-0.6,1.4-1.4s-0.6-1.4-1.4-1.4
						S43.2,50.9,43.2,51.7L43.2,51.7z M36,51.7c0,0.8,0.6,1.4,1.4,1.4c0.8,0,1.4-0.6,1.4-1.4s-0.6-1.4-1.4-1.4S36,50.9,36,51.7
						L36,51.7z M28.8,51.7c0,0.8,0.6,1.4,1.4,1.4c0.8,0,1.4-0.6,1.4-1.4l0,0c0-0.8-0.6-1.4-1.4-1.4C29.4,50.3,28.8,50.9,28.8,51.7z"
						/>
					<g>
						<title>layer 21</title>
						<g>
							<title>text:128x32 I2C OLED</title>
							<g transform="matrix(1, 0, 0, 1, 20.4972, 8.4529)">
								<g>
									<g>
										<g>
											<text transform="matrix(1 0 0 1 -2.593750e-04 -1.914063e-05)" class="st23 st29 st32">128x32 I2C OLED</text>
										</g>
									</g>
								</g>
							</g>
						</g>
						<g>
							<title>text:VIN</title>
							<g transform="matrix(1, 0, 0, 1, 63.3598, 57.3903)">
								<g>
									<g>
										<g>
											<text transform="matrix(1 0 0 1 4.238750e-04 1.882422e-05)" class="st23 st29 st33">VIN</text>
										</g>
									</g>
								</g>
							</g>
						</g>
						<g>
							<title>text:3.3V</title>
							<g transform="matrix(1, 0, 0, 1, 55.0799, 48.7503)">
								<g>
									<g>
										<g>
											<text transform="matrix(1 0 0 1 4.943750e-05 0)" class="st23 st29 st33">3.3V</text>
										</g>
									</g>
								</g>
							</g>
						</g>
						<g>
							<title>text:GND</title>
							<g transform="matrix(1, 0, 0, 1, 48.5999, 57.3903)">
								<g>
									<g>
										<g>
											<text transform="matrix(1 0 0 1 -4.193125e-04 1.882422e-05)" class="st23 st29 st33">GND</text>
										</g>
									</g>
								</g>
							</g>
						</g>
						<g>
							<title>text:RST</title>
							<g transform="matrix(1, 0, 0, 1, 41.7599, 48.7503)">
								<g>
									<g>
										<g>
											<text transform="matrix(1 0 0 1 -2.630625e-04 0)" class="st23 st29 st33">RST</text>
										</g>
									</g>
								</g>
							</g>
						</g>
						<g>
							<title>text:SCL</title>
							<g transform="matrix(1, 0, 0, 1, 34.5599, 57.3903)">
								<g>
									<g>
										<g>
											<text transform="matrix(1 0 0 1 -4.573750e-04 1.882422e-05)" class="st23 st29 st33">SCL</text>
										</g>
									</g>
								</g>
							</g>
						</g>
						<g>
							<title>text:SDA</title>
							<g transform="matrix(1, 0, 0, 1, 26.6399, 48.7503)">
								<g>
									<g>
										<g>
											<text transform="matrix(1 0 0 1 -3.812500e-04 0)" class="st23 st29 st33">SDA</text>
										</g>
									</g>
								</g>
							</g>
						</g>
						<g>
							<title>element:C1</title>
							<g>
								<title>package:0805-NO</title>
							</g>
						</g>
						<g>
							<title>element:C2</title>
							<g>
								<title>package:0805-NO</title>
							</g>
						</g>
						<g>
							<title>element:C3</title>
							<g>
								<title>package:0805-NO</title>
							</g>
						</g>
						<g>
							<title>element:C4</title>
							<g>
								<title>package:0805-NO</title>
							</g>
						</g>
						<g>
							<title>element:C5</title>
							<g>
								<title>package:0805-NO</title>
							</g>
						</g>
						<g>
							<title>element:C6</title>
							<g>
								<title>package:0805-NO</title>
							</g>
						</g>
						<g>
							<title>element:C7</title>
							<g>
								<title>package:0805-NO</title>
							</g>
						</g>
						<g>
							<title>element:D1</title>
							<g>
								<title>package:SOD-323F</title>
							</g>
						</g>
						<g>
							<title>element:FID1</title>
							<g>
								<title>package:FIDUCIAL_1MM</title>
							</g>
						</g>
						<g>
							<title>element:FID2</title>
							<g>
								<title>package:FIDUCIAL_1MM</title>
							</g>
						</g>
						<g>
							<title>element:JP1</title>
							<g>
								<title>package:1X06_ROUND_70</title>
							</g>
						</g>
						<g>
							<title>element:LCD1</title>
							<g>
								<title>package:UG-2832HSWEG02_WRAPUNDER</title>
								<line class="st34" x1="90" y1="12.8" x2="5" y2="12.8"/>
								<line class="st34" x1="90" y1="12.8" x2="90" y2="44.9"/>
								<line class="st34" x1="90" y1="44.9" x2="5" y2="44.9"/>
								<line class="st34" x1="5" y1="12.8" x2="5" y2="44.9"/>
							</g>
						</g>
						<g>
							<title>element:Q1</title>
							<g>
								<title>package:SOT23-WIDE</title>
							</g>
						</g>
						<g>
							<title>element:Q2</title>
							<g>
								<title>package:SOT23-WIDE</title>
							</g>
						</g>
						<g>
							<title>element:R3</title>
							<g>
								<title>package:0805-NO</title>
							</g>
						</g>
						<g>
							<title>element:R4</title>
							<g>
								<title>package:0805-NO</title>
							</g>
						</g>
						<g>
							<title>element:R5</title>
							<g>
								<title>package:0805-NO</title>
							</g>
						</g>
						<g>
							<title>element:R7</title>
							<g>
								<title>package:0805-NO</title>
							</g>
						</g>
						<g>
							<title>element:R8</title>
							<g>
								<title>package:0805-NO</title>
							</g>
						</g>
						<g>
							<title>element:R9</title>
							<g>
								<title>package:0805-NO</title>
							</g>
						</g>
						<g>
							<title>element:U$16</title>
							<g>
								<title>package:ADAFRUIT_3.5MM</title>
							</g>
						</g>
						<g>
							<title>element:U1</title>
							<g>
								<title>package:SOT23-5</title>
							</g>
						</g>
					</g>
					<circle class="st35" cx="66.2" cy="51.7" r="0.8"/>
					
						<rect x="65.3" y="47.1" transform="matrix(-0.2247 -0.9744 0.9744 -0.2247 30.6602 127.8365)" class="st35" width="1.7" height="9.2"/>
					<circle class="st35" cx="59" cy="51.7" r="0.8"/>
					<circle class="st35" cx="51.8" cy="51.7" r="0.8"/>
					<circle class="st35" cx="44.6" cy="51.7" r="0.8"/>
					<circle class="st35" cx="37.4" cy="51.7" r="0.8"/>
					<circle class="st35" cx="30.2" cy="51.7" r="0.8"/>
				</g>
				<g transform="matrix(1, 0, 0, 1, 77.2126, 2.48426)">
					<g>
						<g>
							<g>
								<g id="adafruit_3.5mm">
									<g transform="matrix(0, -1, 1, 0, 0.001476, 9.77846)">
										<g>
											<g>
												<g>
													<g>
														<path class="st36" d="M10.7,3.4c0-0.2-0.1-0.3-0.4-0.3C10.1,3,8.8,2.5,8.8,2.5S7.8,2.2,7.2,2.7C7.1,2.8,7,2.8,6.9,2.9
															C6.9,2.8,7,2.7,7.1,2.6C7.6,1.9,7.2,1,7.2,1S6.8-0.3,6.7-0.5C6.7-0.8,6.6-0.9,6.4-0.9S6.1-0.9,5.9-0.6
															C5.8-0.5,5,0.7,5,0.7S4.4,1.4,4.6,2.2c0,0.1,0.1,0.2,0.1,0.3C4.7,2.5,4.6,2.4,4.6,2.3C4.1,1.6,3.1,1.6,3.1,1.6
															s-1.4,0-1.6,0c-0.3,0-0.4,0-0.5,0.2C0.9,2,0.9,2.1,1.1,2.4c0.1,0.2,1,1.3,1,1.3s0.5,0.8,1.4,0.8c0.1,0,0.2,0,0.4,0
															c-0.1,0-0.2,0.1-0.3,0.1C2.7,4.8,2.4,5.8,2.4,5.8S2,7.1,1.9,7.3c-0.1,0.3-0.1,0.4,0,0.5C2.1,8,2.2,8,2.5,7.9
															C2.7,7.8,4,7.4,4,7.4s1-0.3,1.2-1.1c0-0.1,0.1-0.2,0.1-0.3c0,0.1,0,0.2,0,0.4c0,0.8,0.8,1.4,0.8,1.4s1.1,0.8,1.3,1
															c0.2,0.2,0.3,0.2,0.5,0.1c0.2-0.1,0.2-0.2,0.2-0.5c0-0.2,0-1.6,0-1.6s0-1-0.6-1.5C7.4,5.1,7.3,5.1,7.2,5
															c0.1,0,0.2,0.1,0.3,0.1c0.8,0.3,1.6-0.4,1.6-0.4s1.1-0.8,1.3-0.9C10.7,3.7,10.7,3.6,10.7,3.4z M5.9,2.3
															c0.2,0,0.2,0.3,0.2,0.7S5.8,3.7,5.7,3.7S5.4,3.4,5.5,3C5.6,2.6,5.7,2.3,5.9,2.3z M3.9,3.3C4,3.2,4.3,3.2,4.7,3.4
															C5,3.6,5.2,3.8,5.2,4C5.1,4.1,4.8,4.1,4.4,3.9C4.1,3.7,3.9,3.5,3.9,3.3z M5,5.2C4.7,5.5,4.4,5.6,4.3,5.5
															c-0.1-0.1,0-0.4,0.3-0.7c0.3-0.3,0.6-0.4,0.7-0.3C5.4,4.6,5.2,5,5,5.2z M6.4,5.9C6.3,5.9,6.1,5.7,5.9,5.4
															C5.7,5,5.7,4.7,5.8,4.6s0.4,0.1,0.6,0.5C6.6,5.5,6.6,5.8,6.4,5.9z M6.8,4.3c-0.4,0.1-0.7,0-0.7-0.2
															C6,4,6.3,3.8,6.7,3.7c0.4-0.1,0.7,0,0.7,0.2C7.5,4,7.2,4.2,6.8,4.3z"/>
													</g>
												</g>
											</g>
										</g>
									</g>
								</g>
							</g>
						</g>
					</g>
				</g>
			</g>
		</g>
		<rect x="13.8" y="-89.1" class="st13" width="29.8" height="83.4"/>
	</g>
</g>
<g>
	<line class="st37" x1="51.7" y1="30.2" x2="166.9" y2="30.2"/>
	<line class="st38" x1="51.7" y1="30.2" x2="166.9" y2="30.2"/>
</g>
<g>
	<path class="st39" d="M51.7,44.6c136,32.7,122.4,0,122.4,0"/>
	<path class="st40" d="M51.7,44.6c136,32.7,122.4,0,122.4,0"/>
</g>
<g>
	<line class="st41" x1="51.7" y1="59" x2="166.9" y2="44.6"/>
	<line class="st42" x1="51.7" y1="59" x2="166.9" y2="44.6"/>
</g>
<g>
	<line class="st43" x1="51.7" y1="66.2" x2="166.9" y2="37.4"/>
	<line class="st44" x1="51.7" y1="66.2" x2="166.9" y2="37.4"/>
</g>
</svg>
